<svg width="358" height="268" viewBox="0 0 358 268" fill="none" xmlns="http://www.w3.org/2000/svg">
<path d="M108.895 268C171.174 268 218.163 219.611 218.163 134C218.163 48.3889 171.174 0 108.895 0C46.989 0 0 48.3889 0 134C0 219.611 46.989 268 108.895 268ZM108.895 225.939C73.467 225.939 48.8537 196.906 48.8537 134C48.8537 71.0944 73.467 42.0611 108.895 42.0611C144.696 42.0611 169.31 71.0944 169.31 134C169.31 196.906 144.696 225.939 108.895 225.939Z" fill="#E7F6F7"/>
<path d="M254.326 3.72222V44.2945H309.519V264.278H358V3.72222H254.326Z" fill="#E7F6F7"/>
</svg>
