<svg width="426" height="268" viewBox="0 0 426 268" fill="none" xmlns="http://www.w3.org/2000/svg">
<path d="M79.3702 268C141.349 268 188.111 219.611 188.111 134C188.111 48.3889 141.349 0 79.3702 0C17.7625 0 -29 48.3889 -29 134C-29 219.611 17.7625 268 79.3702 268ZM79.3702 225.939C44.1127 225.939 19.6181 196.906 19.6181 134C19.6181 71.0944 44.1127 42.0611 79.3702 42.0611C114.999 42.0611 139.493 71.0944 139.493 134C139.493 196.906 114.999 225.939 79.3702 225.939Z" fill="#E7F6F7"/>
<path d="M303.15 223.333L372.552 157.078C408.551 123.206 415.603 100.128 415.603 74.8167C415.603 28.6611 379.232 0 322.82 0C280.14 0 244.141 16.0055 224.1 43.1778L257.872 69.2333C272.346 50.6222 293.501 42.0611 318.738 42.0611C350.655 42.0611 366.985 55.8333 366.985 79.6556C366.985 94.1722 362.531 109.433 337.294 133.628L234.12 231.894V264.278H425.623V223.333H303.15Z" fill="#E7F6F7"/>
</svg>
