<svg width="401" height="268" viewBox="0 0 401 268" fill="none" xmlns="http://www.w3.org/2000/svg">
<path d="M108.864 268C171.125 268 218.1 219.611 218.1 134C218.1 48.3889 171.125 0 108.864 0C46.9754 0 0 48.3889 0 134C0 219.611 46.9754 268 108.864 268ZM108.864 225.939C73.4457 225.939 48.8395 196.906 48.8395 134C48.8395 71.0944 73.4457 42.0611 108.864 42.0611C144.654 42.0611 169.261 71.0944 169.261 134C169.261 196.906 144.654 225.939 108.864 225.939Z" fill="#E7F6F7"/>
<path d="M358.313 111.294L421.692 36.1056V3.72222H243.857V44.2944H362.414L303.135 114.644V147.772H326.996C366.515 147.772 383.665 163.033 383.665 186.483C383.665 210.678 363.159 225.939 328.487 225.939C299.034 225.939 270.7 215.889 252.059 200.256L231.181 237.85C255.414 256.833 292.324 268 329.233 268C399.323 268 432.504 230.033 432.504 186.111C432.504 147.028 407.525 117.622 358.313 111.294Z" fill="#E7F6F7"/>
</svg>
