<svg width="444" height="268" viewBox="0 0 444 268" fill="none" xmlns="http://www.w3.org/2000/svg">
<path d="M49.943 268C112.249 268 159.259 219.611 159.259 134C159.259 48.3889 112.249 0 49.943 0C-11.9904 0 -59 48.3889 -59 134C-59 219.611 -11.9904 268 49.943 268ZM49.943 225.939C14.4992 225.939 -10.1249 196.906 -10.1249 134C-10.1249 71.0944 14.4992 42.0611 49.943 42.0611C85.7598 42.0611 110.384 71.0944 110.384 134C110.384 196.906 85.7598 225.939 49.943 225.939Z" fill="#E7F6F7"/>
<path d="M443.5 164.15H397.237V111.667H351.719V164.15H266.281L387.536 3.72222H335.676L206.959 171.594V205.094H350.227V264.278H397.237V205.094H443.5V164.15Z" fill="#E7F6F7"/>
</svg>
