<svg width="78" height="73" viewBox="0 0 78 73" fill="none" xmlns="http://www.w3.org/2000/svg">
<path d="M13.0831 57.6315C15.2056 57.6315 16.9252 55.9118 16.9252 53.7894C16.9252 51.6669 15.2056 49.9473 13.0831 49.9473C10.9606 49.9473 9.241 51.6669 9.241 53.7894C9.241 55.9118 10.9606 57.6315 13.0831 57.6315ZM13.0831 52.5086C13.791 52.5086 14.3638 53.0814 14.3638 53.7892C14.3638 54.497 13.7909 55.0699 13.0831 55.0699C12.3753 55.0699 11.8025 54.497 11.8025 53.7892C11.8025 53.0814 12.3752 52.5086 13.0831 52.5086Z" fill="#2E8AC1"/>
<path d="M23.3286 57.6315C25.4511 57.6315 27.1708 55.9118 27.1708 53.7894C27.1708 51.6669 25.4511 49.9473 23.3286 49.9473C21.2062 49.9473 19.4865 51.6669 19.4865 53.7894C19.4865 55.9118 21.2062 57.6315 23.3286 57.6315ZM23.3286 52.5086C24.0364 52.5086 24.6093 53.0814 24.6093 53.7892C24.6093 54.497 24.0364 55.0699 23.3286 55.0699C22.6207 55.0699 22.048 54.497 22.048 53.7892C22.048 53.0814 22.6208 52.5086 23.3286 52.5086Z" fill="#2E8AC1"/>
<path d="M33.5743 57.6315C35.6968 57.6315 37.4165 55.9118 37.4165 53.7894C37.4165 51.6669 35.6968 49.9473 33.5743 49.9473C31.4519 49.9473 29.7322 51.6669 29.7322 53.7894C29.7322 55.9118 31.4519 57.6315 33.5743 57.6315ZM33.5743 52.5086C34.2821 52.5086 34.855 53.0814 34.855 53.7892C34.855 54.497 34.2821 55.0699 33.5743 55.0699C32.8664 55.0699 32.2937 54.497 32.2937 53.7892C32.2937 53.0814 32.8665 52.5086 33.5743 52.5086Z" fill="#2E8AC1"/>
<path d="M43.82 57.6315C45.9425 57.6315 47.6621 55.9118 47.6621 53.7894C47.6621 51.6669 45.9425 49.9473 43.82 49.9473C41.6975 49.9473 39.9779 51.6669 39.9779 53.7894C39.9779 55.9118 41.6975 57.6315 43.82 57.6315ZM43.82 52.5086C44.5278 52.5086 45.1007 53.0814 45.1007 53.7892C45.1007 54.497 44.5278 55.0699 43.82 55.0699C43.1122 55.0699 42.5394 54.497 42.5394 53.7892C42.5394 53.0814 43.1121 52.5086 43.82 52.5086Z" fill="#2E8AC1"/>
<path d="M54.0656 57.6315C56.188 57.6315 57.9077 55.9118 57.9077 53.7894C57.9077 51.6669 56.188 49.9473 54.0656 49.9473C51.9431 49.9473 50.2234 51.6669 50.2234 53.7894C50.2234 55.9118 51.9431 57.6315 54.0656 57.6315ZM54.0656 52.5086C54.7734 52.5086 55.3462 53.0814 55.3462 53.7892C55.3462 54.497 54.7734 55.0699 54.0656 55.0699C53.3578 55.0699 52.7849 54.497 52.7849 53.7892C52.7849 53.0814 53.3578 52.5086 54.0656 52.5086Z" fill="#2E8AC1"/>
<path d="M64.3113 57.6315C66.4337 57.6315 68.1534 55.9118 68.1534 53.7894C68.1534 51.6669 66.4337 49.9473 64.3113 49.9473C62.1888 49.9473 60.4691 51.6669 60.4691 53.7894C60.4691 55.9118 62.1888 57.6315 64.3113 57.6315ZM64.3113 52.5086C65.019 52.5086 65.5919 53.0814 65.5919 53.7892C65.5919 54.497 65.019 55.0699 64.3113 55.0699C63.6035 55.0699 63.0306 54.497 63.0306 53.7892C63.0306 53.0814 63.6035 52.5086 64.3113 52.5086Z" fill="#2E8AC1"/>
<path d="M75.8376 70.4387H73.2761V62.7545H74.0851C75.7603 62.7545 77.1178 61.3964 77.1178 59.7217V47.8573C77.1178 46.3435 76.0073 45.0922 74.5569 44.8649V40.3165C74.5569 38.7734 73.455 37.4876 71.9955 37.2011V1.28065C71.9955 0.573315 71.4222 0 70.7148 0H6.67955C5.97221 0 5.3989 0.573315 5.3989 1.28065V37.2011C3.93949 37.4878 2.83744 38.7734 2.83744 40.3165V44.8649C1.38689 45.0923 0.275528 46.3437 0.275528 47.8573V59.7217C0.275528 61.3964 1.63438 62.7545 3.30945 62.7545H4.11809V70.4387H1.55678C0.849444 70.4387 0.276128 71.012 0.276128 71.7193C0.276128 72.4267 0.849444 73 1.55678 73H5.3989H13.0831H64.3113H71.9955H75.8376C76.5449 73 77.1182 72.4267 77.1182 71.7193C77.1182 71.012 76.5449 70.4387 75.8376 70.4387ZM7.96021 2.56131H69.434V37.1403H64.3113V8.96488C64.3113 8.25754 63.7379 7.68423 63.0306 7.68423H47.6621H29.7322H14.3638C13.6564 7.68423 13.0831 8.25754 13.0831 8.96488V37.1403H7.96021V2.56131ZM48.9428 37.1403V32.0176C48.9428 31.3102 48.3695 30.7369 47.6621 30.7369H29.7322C29.0249 30.7369 28.4516 31.3104 28.4516 32.0176V37.1403H15.6446V10.2455H28.4516V15.3683H25.8901V14.0876C25.8901 13.3803 25.3168 12.807 24.6095 12.807C23.9021 12.807 23.3288 13.3805 23.3288 14.0876V19.2104C23.3288 19.9178 23.9021 20.4911 24.6095 20.4911C25.3168 20.4911 25.8901 19.9178 25.8901 19.2104V17.9298H28.4516V21.7719C28.4516 22.4792 29.0249 23.0525 29.7322 23.0525H33.5743V26.8946C33.5743 27.602 34.1477 28.1753 34.855 28.1753H42.5392C43.2466 28.1753 43.8199 27.602 43.8199 26.8946V23.0525H47.662C48.3693 23.0525 48.9426 22.4791 48.9426 21.7719V17.9298H51.5041V19.2104C51.5041 19.9178 52.0774 20.4911 52.7848 20.4911C53.4921 20.4911 54.0654 19.9178 54.0654 19.2104V14.0876C54.0654 13.3803 53.4921 12.807 52.7848 12.807C52.0774 12.807 51.5041 13.3805 51.5041 14.0876V15.3683H48.9428V10.2455H61.7498V37.1403H48.9428ZM46.3813 37.1403H31.0129V33.2982H46.3813V37.1403ZM46.3813 20.4912H42.5392H34.855H31.0129V10.2455H46.3813V20.4912ZM36.1358 23.0527H41.2586V25.6141H36.1358V23.0527ZM5.3989 40.3165C5.3989 39.9775 5.6746 39.7018 6.01363 39.7018H6.67955H14.3638H29.7322H47.6621H63.0306H70.7148H71.3807C71.7198 39.7018 71.9955 39.9775 71.9955 40.3165V44.8246H5.3989V40.3165ZM2.83699 59.7217V47.8573C2.83699 47.5976 3.04875 47.386 3.3096 47.386H4.11824H73.2763H74.0852C74.3455 47.386 74.5565 47.597 74.5565 47.8573V59.7217C74.5565 59.982 74.3455 60.193 74.0852 60.193H71.9955H64.3113H13.0831H5.3989H3.30945C3.0486 60.193 2.83699 59.9814 2.83699 59.7217ZM63.0306 62.7545V70.4387H14.3638V62.7545H63.0306ZM6.67955 70.4387V62.7545H11.8023V70.4387H6.67955ZM65.5919 70.4387V62.7545H70.7147V70.4387H65.5919Z" fill="#2E8AC1"/>
</svg>
