<svg width="46" height="73" viewBox="0 0 46 73" fill="none" xmlns="http://www.w3.org/2000/svg">
<path d="M11.5204 73H34.2539C34.4251 73 34.5947 72.9664 34.7528 72.9009C34.911 72.8354 35.0547 72.7393 35.1758 72.6183C35.2969 72.4972 35.3929 72.3535 35.4584 72.1953C35.5239 72.0372 35.5575 71.8676 35.5575 71.6964V66.557C38.197 66.3827 40.6717 65.2124 42.4811 63.2827C44.2905 61.3531 45.2994 58.8083 45.3037 56.1631V23.4796C45.3005 20.7156 44.2015 18.0657 42.2475 16.1109C40.2936 14.156 37.6442 13.0557 34.8803 13.0512V2.60714H36.7688C37.1145 2.60714 37.4461 2.4698 37.6905 2.22534C37.935 1.98087 38.0724 1.6493 38.0724 1.30357C38.0724 0.957843 37.935 0.626275 37.6905 0.381807C37.4461 0.13734 37.1145 0 36.7688 0H9.0055C8.65977 0 8.3282 0.13734 8.08374 0.381807C7.83927 0.626275 7.70193 0.957843 7.70193 1.30357C7.70193 1.6493 7.83927 1.98087 8.08374 2.22534C8.3282 2.4698 8.65977 2.60714 9.0055 2.60714H10.894V13.0512C8.13009 13.0557 5.48071 14.156 3.52677 16.1109C1.57282 18.0657 0.47376 20.7156 0.470551 23.4796V56.1631C0.474898 58.8083 1.48381 61.3531 3.29318 63.2828C5.10255 65.2124 7.5773 66.3827 10.2168 66.557V71.6964C10.2167 71.8676 10.2504 72.0372 10.3159 72.1953C10.3814 72.3535 10.4774 72.4972 10.5985 72.6183C10.7195 72.7393 10.8633 72.8354 11.0214 72.9009C11.1796 72.9664 11.3492 73 11.5204 73ZM32.9504 70.3929H12.8239V66.5916H32.9504V70.3929ZM13.5012 2.60714H32.2731V13.051H24.1907V8.84494H26.7979C27.1436 8.84494 27.4752 8.7076 27.7196 8.46313C27.9641 8.21867 28.1014 7.8871 28.1014 7.54137C28.1014 7.19564 27.9641 6.86407 27.7196 6.61961C27.4752 6.37514 27.1436 6.2378 26.7979 6.2378H18.9764C18.6307 6.2378 18.2991 6.37514 18.0547 6.61961C17.8102 6.86407 17.6729 7.19564 17.6729 7.54137C17.6729 7.8871 17.8102 8.21867 18.0547 8.46313C18.2991 8.7076 18.6307 8.84494 18.9764 8.84494H21.5836V13.051H13.5012V2.60714ZM3.07769 23.4796C3.07996 21.4059 3.90472 19.4178 5.37104 17.9515C6.83735 16.4852 8.82545 15.6604 10.8991 15.6581H34.8752C36.9488 15.6604 38.9369 16.4852 40.4032 17.9515C41.8696 19.4178 42.6943 21.4059 42.6966 23.4796V25.4744H3.07769V23.4796ZM3.07769 28.0815H42.6966V51.5598H3.07769V28.0815ZM3.07769 56.1631V54.167H42.6966V56.1631C42.6943 58.2367 41.8696 60.2248 40.4032 61.6912C38.9369 63.1575 36.9488 63.9822 34.8752 63.9845H10.8991C8.82545 63.9822 6.83735 63.1575 5.37104 61.6912C3.90472 60.2248 3.07996 58.2367 3.07769 56.1631V56.1631Z" fill="#2E8AC1"/>
<path d="M21.8668 32.9278C21.0966 33.8965 17.2547 38.8651 17.2547 41.5741C17.2547 43.0679 17.8481 44.5006 18.9044 45.5569C19.9607 46.6132 21.3933 47.2066 22.8871 47.2066C24.381 47.2066 25.8136 46.6132 26.8699 45.5569C27.9262 44.5006 28.5196 43.0679 28.5196 41.5741C28.5196 38.8651 24.6777 33.8965 23.9075 32.9278C23.781 32.781 23.6245 32.6632 23.4484 32.5825C23.2723 32.5018 23.0809 32.46 22.8871 32.46C22.6934 32.46 22.502 32.5018 22.3259 32.5825C22.1498 32.6632 21.9932 32.781 21.8668 32.9278ZM22.8871 44.6001C22.0849 44.5992 21.3159 44.2801 20.7487 43.7128C20.1815 43.1455 19.8625 42.3763 19.8618 41.5741C19.8618 40.5888 21.2921 38.114 22.8859 35.9028C24.3473 37.9358 25.9125 40.5111 25.9125 41.5741C25.9117 42.3763 25.5928 43.1455 25.0256 43.7128C24.4584 44.2801 23.6893 44.5992 22.8871 44.6001Z" fill="#2E8AC1"/>
</svg>
