<svg width="61" height="73" viewBox="0 0 61 73" fill="none" xmlns="http://www.w3.org/2000/svg">
<g clip-path="url(#clip0_601_1403)">
<path d="M56.2726 28.509H3.75151C1.68318 28.509 0 26.8259 0 24.7575V9.75151C0 7.68318 1.68318 6 3.75151 6H56.2726C58.3409 6 60.0241 7.68318 60.0241 9.75151V24.7575C60.0241 26.8259 58.3409 28.509 56.2726 28.509ZM3.75151 8.501C3.06123 8.501 2.501 9.06123 2.501 9.75151V24.7575C2.501 25.4478 3.06123 26.008 3.75151 26.008H56.2726C56.9629 26.008 57.5231 25.4478 57.5231 24.7575V9.75151C57.5231 9.06123 56.9629 8.501 56.2726 8.501H3.75151Z" fill="#2E8AC1"/>
<path d="M21.2585 33.5108H11.2545C10.7818 33.5108 10.3492 33.2432 10.1366 32.8205L7.63556 27.8185C7.44049 27.4309 7.46049 26.9707 7.69059 26.6006C7.92068 26.2304 8.32084 26.0078 8.75351 26.0078H23.7595C24.1922 26.0078 24.5949 26.2329 24.8225 26.6006C25.0501 26.9682 25.0726 27.4309 24.8775 27.816L22.3765 32.818C22.1639 33.2432 21.7312 33.5108 21.2585 33.5108V33.5108ZM12.0273 31.0098H20.4857L21.7362 28.5088H10.7768L12.0273 31.0098Z" fill="#2E8AC1"/>
<path d="M18.7575 38.5133H13.7555C13.0652 38.5133 12.505 37.953 12.505 37.2628V32.2608C12.505 31.5705 13.0652 31.0103 13.7555 31.0103H18.7575C19.4478 31.0103 20.008 31.5705 20.008 32.2608V37.2628C20.008 37.953 19.4478 38.5133 18.7575 38.5133ZM15.006 36.0123H17.507V33.5113H15.006V36.0123Z" fill="#2E8AC1"/>
<path d="M16.2565 48.5172C15.5663 48.5172 15.006 47.9569 15.006 47.2667V42.2647C15.006 41.5744 15.5663 41.0142 16.2565 41.0142C16.9468 41.0142 17.507 41.5744 17.507 42.2647V47.2667C17.507 47.9569 16.9468 48.5172 16.2565 48.5172Z" fill="#2E8AC1"/>
<path d="M23.7595 66.0241C23.0693 66.0241 22.509 65.4639 22.509 64.7736V62.5677C22.509 61.3197 21.8163 60.1968 20.6983 59.639C18.73 58.6536 17.507 56.6753 17.507 54.4745V53.5191H15.006V54.4745C15.006 56.6753 13.783 58.6536 11.8147 59.639C10.6968 60.1968 10.004 61.3197 10.004 62.5677V64.7736C10.004 65.4639 9.44379 66.0241 8.75351 66.0241C8.06323 66.0241 7.50301 65.4639 7.50301 64.7736V62.5677C7.50301 60.3668 8.726 58.3885 10.6943 57.4031C11.8122 56.8454 12.505 55.7225 12.505 54.4745V52.2686C12.505 51.5783 13.0652 51.0181 13.7555 51.0181H18.7575C19.4478 51.0181 20.008 51.5783 20.008 52.2686V54.4745C20.008 55.7225 20.7008 56.8454 21.8188 57.4031C23.787 58.3885 25.01 60.3668 25.01 62.5677V64.7736C25.01 65.4639 24.4498 66.0241 23.7595 66.0241Z" fill="#2E8AC1"/>
<path d="M21.2585 53.5191H11.2545C10.5642 53.5191 10.004 52.9588 10.004 52.2686C10.004 51.5783 10.5642 51.0181 11.2545 51.0181H21.2585C21.9488 51.0181 22.509 51.5783 22.509 52.2686C22.509 52.9588 21.9488 53.5191 21.2585 53.5191Z" fill="#2E8AC1"/>
<path d="M48.7696 33.5108H38.7656C38.2929 33.5108 37.8602 33.2432 37.6476 32.8205L35.1466 27.8185C34.9515 27.4309 34.974 26.9707 35.2016 26.6031C35.4292 26.2354 35.8319 26.0078 36.2646 26.0078H51.2706C51.7033 26.0078 52.1059 26.2329 52.3335 26.6006C52.5611 26.9682 52.5836 27.4309 52.3885 27.816L49.8875 32.818C49.675 33.2432 49.2423 33.5108 48.7696 33.5108ZM39.5384 31.0098H47.9968L49.2473 28.5088H38.2879L39.5384 31.0098Z" fill="#2E8AC1"/>
<path d="M46.2686 38.5133H41.2666C40.5763 38.5133 40.0161 37.953 40.0161 37.2628V32.2608C40.0161 31.5705 40.5763 31.0103 41.2666 31.0103H46.2686C46.9589 31.0103 47.5191 31.5705 47.5191 32.2608V37.2628C47.5191 37.953 46.9589 38.5133 46.2686 38.5133ZM42.5171 36.0123H45.0181V33.5113H42.5171V36.0123Z" fill="#2E8AC1"/>
<path d="M43.7676 48.5172C43.0773 48.5172 42.5171 47.9569 42.5171 47.2667V42.2647C42.5171 41.5744 43.0773 41.0142 43.7676 41.0142C44.4579 41.0142 45.0181 41.5744 45.0181 42.2647V47.2667C45.0181 47.9569 44.4579 48.5172 43.7676 48.5172Z" fill="#2E8AC1"/>
<path d="M51.2706 66.0241C50.5803 66.0241 50.0201 65.4639 50.0201 64.7736V62.5677C50.0201 61.3197 49.3273 60.1968 48.2094 59.639C46.2411 58.6536 45.0181 56.6753 45.0181 54.4745V53.5191H42.5171V54.4745C42.5171 56.6753 41.2941 58.6536 39.3258 59.639C38.2079 60.1968 37.5151 61.3197 37.5151 62.5677V64.7736C37.5151 65.4639 36.9548 66.0241 36.2646 66.0241C35.5743 66.0241 35.0141 65.4639 35.0141 64.7736V62.5677C35.0141 60.3668 36.2371 58.3885 38.2054 57.4031C39.3233 56.8454 40.0161 55.7225 40.0161 54.4745V52.2686C40.0161 51.5783 40.5763 51.0181 41.2666 51.0181H46.2686C46.9589 51.0181 47.5191 51.5783 47.5191 52.2686V54.4745C47.5191 55.7225 48.2119 56.8454 49.3298 57.4031C51.2981 58.3885 52.5211 60.3668 52.5211 62.5677V64.7736C52.5211 65.4639 51.9609 66.0241 51.2706 66.0241Z" fill="#2E8AC1"/>
<path d="M48.7696 53.5191H38.7656C38.0753 53.5191 37.5151 52.9588 37.5151 52.2686C37.5151 51.5783 38.0753 51.0181 38.7656 51.0181H48.7696C49.4599 51.0181 50.0201 51.5783 50.0201 52.2686C50.0201 52.9588 49.4599 53.5191 48.7696 53.5191Z" fill="#2E8AC1"/>
<path d="M51.2706 16.0039H8.75351C8.06323 16.0039 7.50301 15.4437 7.50301 14.7534C7.50301 14.0632 8.06323 13.5029 8.75351 13.5029H51.2706C51.9609 13.5029 52.5211 14.0632 52.5211 14.7534C52.5211 15.4437 51.9609 16.0039 51.2706 16.0039Z" fill="#2E8AC1"/>
<path d="M51.2706 21.0059H8.75351C8.06323 21.0059 7.50301 20.4457 7.50301 19.7554C7.50301 19.0651 8.06323 18.5049 8.75351 18.5049H51.2706C51.9609 18.5049 52.5211 19.0651 52.5211 19.7554C52.5211 20.4457 51.9609 21.0059 51.2706 21.0059Z" fill="#2E8AC1"/>
</g>
<defs>
<clipPath id="clip0_601_1403">
<rect width="60.0241" height="60.0241" fill="white" transform="translate(0 6)"/>
</clipPath>
</defs>
</svg>
