<svg width="56" height="73" viewBox="0 0 56 73" fill="none" xmlns="http://www.w3.org/2000/svg">
<path d="M26.7123 42.1978C25.3585 42.1978 24.0351 42.5992 22.9095 43.3513C21.7838 44.1035 20.9065 45.1725 20.3884 46.4232C19.8704 47.674 19.7348 49.0503 19.9989 50.3781C20.263 51.7059 20.9149 52.9255 21.8722 53.8828C22.8295 54.8401 24.0492 55.492 25.3769 55.7561C26.7047 56.0202 28.081 55.8847 29.3318 55.3666C30.5825 54.8485 31.6515 53.9712 32.4037 52.8455C33.1558 51.7199 33.5572 50.3965 33.5572 49.0427C33.5554 47.2279 32.8337 45.4879 31.5504 44.2046C30.2671 42.9213 28.5272 42.1996 26.7123 42.1978ZM26.7123 53.606C25.8098 53.606 24.9275 53.3383 24.1771 52.8369C23.4267 52.3355 22.8418 51.6228 22.4964 50.789C22.151 49.9551 22.0606 49.0376 22.2367 48.1524C22.4128 47.2672 22.8474 46.4541 23.4856 45.816C24.1238 45.1778 24.9369 44.7432 25.8221 44.5671C26.7073 44.391 27.6248 44.4814 28.4586 44.8268C29.2924 45.1721 30.0051 45.757 30.5066 46.5075C31.008 47.2579 31.2756 48.1402 31.2756 49.0427C31.2756 50.2529 30.7948 51.4136 29.939 52.2694C29.0833 53.1252 27.9226 53.606 26.7123 53.606V53.606Z" fill="#2E8AC1"/>
<path d="M49.863 19.5457L35.8263 7.06964C35.8263 6.98978 35.8389 6.91221 35.8389 6.83235C35.8358 5.13405 35.2014 3.49756 34.0591 2.24085C32.9168 0.984144 31.3481 0.196968 29.6578 0.0322761C27.9675 -0.132416 26.2763 0.337139 24.9129 1.3497C23.5494 2.36227 22.6111 3.84553 22.2802 5.51128C22.2677 5.52497 22.2506 5.52953 22.2392 5.54322L12.1805 17.2777C11.3329 17.5102 10.5593 17.9569 9.93426 18.5748L8.90752 19.6016C7.85551 19.3873 6.76421 19.4773 5.76159 19.8613C4.75897 20.2452 3.88659 20.907 3.24676 21.7691L1.48191 24.1215C0.773468 25.0618 0.431004 26.2276 0.518315 27.4017C0.605626 28.5758 1.11676 29.6781 1.95649 30.5033C2.06997 30.6191 2.20684 30.7094 2.35799 30.7682C2.50913 30.827 2.67107 30.8529 2.83301 30.8441C2.99495 30.8354 3.15316 30.7922 3.29709 30.7175C3.44103 30.6428 3.56738 30.5383 3.66772 30.4108L6.20491 27.1937C6.35641 27.0011 6.54693 26.8427 6.76398 26.729C6.98103 26.6152 7.21969 26.5486 7.46428 26.5336C7.70888 26.5186 7.95388 26.5556 8.1832 26.642C8.41252 26.7284 8.62097 26.8623 8.79485 27.035C8.96874 27.2076 9.10413 27.4151 9.19214 27.6439C9.28015 27.8726 9.31879 28.1173 9.30551 28.362C9.29223 28.6067 9.22734 28.8458 9.1151 29.0637C9.00286 29.2815 8.8458 29.4731 8.65425 29.626L5.45995 32.1803C5.3347 32.2805 5.23199 32.4061 5.15856 32.5487C5.08512 32.6914 5.0426 32.8479 5.03377 33.0081C5.02494 33.1683 5.05001 33.3286 5.10732 33.4784C5.16464 33.6283 5.25292 33.7644 5.36641 33.8778C6.19565 34.7018 7.29294 35.201 8.45895 35.2847C9.62495 35.3684 10.7823 35.0312 11.7208 34.3341L14.0572 32.5818C14.9188 31.9413 15.5802 31.0686 15.964 30.066C16.3479 29.0633 16.4383 27.9721 16.2247 26.9199L17.2515 25.8932C17.8706 25.2675 18.3178 24.4926 18.5497 23.6435L29.4343 14.3139L40.482 26.426L26.677 38.7754C23.9608 38.7874 21.3599 39.8741 19.4426 41.7981C17.5254 43.722 16.4476 46.3266 16.4449 49.0427V61.7059C15.1574 61.9706 14.0005 62.6712 13.1693 63.6895C12.3381 64.7077 11.8833 65.9814 11.8816 67.2959V71.8592C11.8816 72.1617 12.0018 72.4519 12.2158 72.6659C12.4297 72.8798 12.7199 73 13.0225 73H40.4022C40.7047 73 40.9949 72.8798 41.2089 72.6659C41.4228 72.4519 41.543 72.1617 41.543 71.8592V67.2959C41.5413 65.9814 41.0866 64.7077 40.2553 63.6895C39.4241 62.6712 38.2672 61.9706 36.9797 61.7059V48.5864L49.4671 32.9777C51.0405 32.7278 52.4772 31.9365 53.5293 30.7403C54.5814 29.5441 55.1829 28.0181 55.2298 26.4257C55.2767 24.8333 54.7662 23.2745 53.7864 22.0184C52.8066 20.7623 51.4189 19.8877 49.863 19.5457V19.5457ZM12.6916 30.752L10.3564 32.5008C10.0475 32.7312 9.691 32.8897 9.31299 32.9645C8.93499 33.0393 8.54503 33.0286 8.17169 32.9332L10.0826 31.4045C10.5253 31.0509 10.8882 30.6076 11.1475 30.1038C11.4069 29.6 11.5568 29.0471 11.5874 28.4813C11.618 27.9155 11.5286 27.3496 11.3251 26.8208C11.1216 26.292 10.8086 25.8122 10.4066 25.4129C10.0046 25.0136 9.52269 24.7038 8.99253 24.5038C8.46237 24.3038 7.89592 24.2182 7.33034 24.2526C6.76476 24.2869 6.21285 24.4405 5.7108 24.7032C5.20875 24.9659 4.76793 25.3318 4.41724 25.7768L2.88056 27.7288C2.77446 27.348 2.75777 26.9479 2.83178 26.5597C2.90579 26.1714 3.06851 25.8055 3.30722 25.4905L5.07436 23.1347C5.3685 22.7424 5.7435 22.4179 6.17396 22.1832C6.60442 21.9485 7.0803 21.8089 7.56936 21.7741C8.05843 21.7393 8.54927 21.8099 9.00865 21.9813C9.46803 22.1527 9.88524 22.4207 10.232 22.7673L13.059 25.5943C13.4056 25.9411 13.6737 26.3583 13.845 26.8177C14.0164 27.277 14.087 27.7679 14.0522 28.257C14.0174 28.746 13.8779 29.2219 13.6431 29.6523C13.4084 30.0828 13.0839 30.4578 12.6916 30.752V30.752ZM15.6384 24.2789L15.2482 24.6691C15.0766 24.4261 14.8858 24.1972 14.6778 23.9846L11.8508 21.1576C11.6382 20.9496 11.4093 20.7589 11.1663 20.5872L11.5565 20.1971C12.1019 19.6686 12.8332 19.3758 13.5926 19.3818C14.3519 19.3878 15.0785 19.6921 15.6155 20.2291C16.1525 20.766 16.4568 21.4926 16.4628 22.252C16.4688 23.0114 16.1759 23.7427 15.6475 24.2881L15.6384 24.2789ZM18.5041 20.6751C18.267 19.8815 17.8362 19.1595 17.2505 18.574C16.6648 17.9884 15.9426 17.5579 15.149 17.3211L22.4434 8.81053C22.7715 9.88895 23.3599 10.8701 24.1567 11.6675C24.9535 12.4648 25.9342 13.054 27.0124 13.3829L18.5041 20.6751ZM28.994 11.3956C28.0914 11.3956 27.2092 11.128 26.4587 10.6266C25.7083 10.1252 25.1234 9.41247 24.778 8.57864C24.4327 7.74481 24.3423 6.82729 24.5184 5.9421C24.6944 5.05691 25.129 4.24381 25.7672 3.60562C26.4054 2.96743 27.2185 2.53282 28.1037 2.35675C28.9889 2.18067 29.9064 2.27104 30.7403 2.61642C31.5741 2.96181 32.2868 3.54669 32.7882 4.29712C33.2896 5.04755 33.5572 5.92982 33.5572 6.83235C33.5572 8.04261 33.0765 9.2033 32.2207 10.0591C31.3649 10.9149 30.2042 11.3956 28.994 11.3956ZM31.5038 13.1947C33.1714 12.5327 34.5142 11.2451 35.2457 9.60683L46.5398 19.6461C45.3977 19.9697 44.3592 20.5842 43.5258 21.4295C42.6923 22.2747 42.0925 23.3218 41.7849 24.4683L31.5038 13.1947ZM18.7266 49.0427C18.7266 46.9248 19.5679 44.8936 21.0655 43.396C22.5632 41.8983 24.5944 41.057 26.7123 41.057C28.8303 41.057 30.8615 41.8983 32.3591 43.396C33.8567 44.8936 34.6981 46.9248 34.6981 49.0427V61.5918H18.7266V49.0427ZM39.2614 67.2959V70.7184H14.1633V67.2959C14.1633 66.3882 14.5239 65.5177 15.1657 64.8758C15.8075 64.234 16.6781 63.8734 17.5857 63.8734H35.8389C36.7466 63.8734 37.6171 64.234 38.2589 64.8758C38.9008 65.5177 39.2614 66.3882 39.2614 67.2959V67.2959ZM36.3968 45.6636C35.8581 44.1284 34.9635 42.7425 33.7863 41.6194C32.609 40.4963 31.1826 39.6679 29.6237 39.202L41.8522 28.2615C42.2004 29.3685 42.8237 30.3692 43.6636 31.17C44.5035 31.9708 45.5327 32.5456 46.655 32.8408L36.3968 45.6636ZM48.3879 30.7896C47.4854 30.7896 46.6031 30.522 45.8527 30.0206C45.1023 29.5191 44.5174 28.8064 44.172 27.9726C43.8266 27.1388 43.7362 26.2213 43.9123 25.3361C44.0884 24.4509 44.523 23.6378 45.1612 22.9996C45.7994 22.3614 46.6125 21.9268 47.4977 21.7507C48.3829 21.5746 49.3004 21.665 50.1342 22.0104C50.9681 22.3558 51.6807 22.9407 52.1822 23.6911C52.6836 24.4415 52.9512 25.3238 52.9512 26.2263C52.9512 27.4366 52.4704 28.5973 51.6147 29.453C50.7589 30.3088 49.5982 30.7896 48.3879 30.7896Z" fill="#2E8AC1"/>
</svg>
