<svg width="78" height="73" viewBox="0 0 78 73" fill="none" xmlns="http://www.w3.org/2000/svg">
<path fill-rule="evenodd" clip-rule="evenodd" d="M56.3449 68.9515C56.3449 67.3564 57.6381 66.0635 59.2329 66.0635H64.6846C66.2797 66.0635 67.5724 67.3567 67.5727 68.9513V70.1117C67.5727 71.7069 66.2795 72.9997 64.6846 72.9997H59.2329C57.6378 72.9997 56.3449 71.7066 56.3449 70.1117V68.9515ZM59.2329 68.309C58.8781 68.309 58.5904 68.5967 58.5904 68.9515V70.1117C58.5904 70.4665 58.8781 70.7542 59.2329 70.7542H64.6846C65.0394 70.7542 65.3271 70.4666 65.3271 70.1117V68.9517C65.3271 68.9516 65.3271 68.9516 65.3271 68.9515C65.327 68.5965 65.0392 68.309 64.6846 68.309H59.2329Z" fill="#2E8AC1"/>
<path fill-rule="evenodd" clip-rule="evenodd" d="M64.974 59.1773C65.2589 59.3891 65.4269 59.7233 65.4269 60.0783V67.1866C65.4269 67.8067 64.9242 68.3094 64.3041 68.3094H59.6135C58.9934 68.3094 58.4907 67.8067 58.4907 67.1866V60.7948C58.4907 60.1801 58.985 59.6797 59.5997 59.6721C61.1227 59.6534 62.5923 59.4208 63.9806 59.0032C64.3207 58.9009 64.689 58.9655 64.974 59.1773ZM60.7363 61.8704V66.0638H63.1813V61.5238C62.3841 61.693 61.5677 61.8098 60.7363 61.8704Z" fill="#2E8AC1"/>
<path fill-rule="evenodd" clip-rule="evenodd" d="M20.2149 57.2314C16.4807 57.2314 13.4534 60.2586 13.4534 63.9929C13.4534 67.7272 16.4807 70.7545 20.2149 70.7545C23.9492 70.7545 26.9765 67.7272 26.9765 63.9929C26.9765 60.2586 23.9492 57.2314 20.2149 57.2314ZM11.2079 63.9929C11.2079 59.0184 15.2405 54.9858 20.2149 54.9858C25.1894 54.9858 29.222 59.0184 29.222 63.9929C29.222 68.9674 25.1894 73 20.2149 73C15.2405 73 11.2079 68.9674 11.2079 63.9929Z" fill="#2E8AC1"/>
<path fill-rule="evenodd" clip-rule="evenodd" d="M20.215 62.0829C19.1604 62.0829 18.3054 62.9379 18.3054 63.9925C18.3054 65.0471 19.1604 65.9021 20.215 65.9021C21.2696 65.9021 22.1246 65.0471 22.1246 63.9925C22.1246 62.9379 21.2696 62.0829 20.215 62.0829ZM16.0599 63.9925C16.0599 61.6977 17.9202 59.8374 20.215 59.8374C22.5098 59.8374 24.3701 61.6977 24.3701 63.9925C24.3701 66.2873 22.5098 68.1476 20.215 68.1476C17.9202 68.1476 16.0599 66.2873 16.0599 63.9925Z" fill="#2E8AC1"/>
<path fill-rule="evenodd" clip-rule="evenodd" d="M0.873047 43.8008C0.873047 33.7938 8.98523 25.6816 18.9921 25.6816H59.4009C69.4078 25.6816 77.52 33.7938 77.52 43.801C77.52 53.8079 69.4078 61.9201 59.4009 61.9201H27.4226C26.9787 61.9201 26.5766 61.6586 26.3964 61.2529C25.3434 58.8814 22.9712 57.2311 20.215 57.2311C17.7731 57.2311 15.6326 58.5252 14.4426 60.4703C14.1681 60.919 13.6189 61.117 13.1212 60.9467C5.99754 58.508 0.873047 51.7546 0.873047 43.8008ZM18.9921 27.9272C10.2254 27.9272 3.11858 35.034 3.11858 43.8008C3.11858 50.4672 7.22884 56.1757 13.056 58.5269C14.7005 56.3761 17.2947 54.9856 20.215 54.9856C23.6266 54.9856 26.5907 56.8828 28.1187 59.6745H59.4009C68.1676 59.6745 75.2744 52.5677 75.2744 43.801C75.2744 35.034 68.1676 27.9272 59.4009 27.9272H18.9921Z" fill="#2E8AC1"/>
<path fill-rule="evenodd" clip-rule="evenodd" d="M18.7208 25.6847C18.8038 25.6833 18.8983 25.6816 18.9923 25.6816H24.3443C24.9643 25.6816 25.467 26.1843 25.467 26.8044V57.276C25.467 57.6829 25.2468 58.058 24.8915 58.2564C24.5362 58.4547 24.1013 58.4453 23.7549 58.2317C22.7261 57.5973 21.5152 57.2309 20.215 57.2309C19.767 57.2309 19.3297 57.2749 18.9062 57.3579C18.5769 57.4224 18.2359 57.3363 17.9768 57.123C17.7177 56.9097 17.5675 56.5917 17.5675 56.2561V26.8081C17.5675 26.1952 18.0591 25.6956 18.6719 25.6855C18.6877 25.6853 18.704 25.685 18.7208 25.6847ZM19.8131 27.9272V54.9943C19.9463 54.9884 20.0803 54.9854 20.215 54.9854C21.2686 54.9854 22.2808 55.1669 23.2215 55.5002V27.9272H19.8131Z" fill="#2E8AC1"/>
<path fill-rule="evenodd" clip-rule="evenodd" d="M54.0489 7.97942C50.4249 7.97942 47.487 10.9173 47.487 14.5413C47.487 18.1653 50.4249 21.1031 54.0489 21.1031C57.6729 21.1031 60.6107 18.1653 60.6107 14.5413C60.6107 10.9173 57.6729 7.97942 54.0489 7.97942ZM45.2415 14.5413C45.2415 9.67708 49.1847 5.73389 54.0489 5.73389C58.9131 5.73389 62.8562 9.67708 62.8562 14.5413C62.8562 19.4054 58.9131 23.3486 54.0489 23.3486C49.1847 23.3486 45.2415 19.4054 45.2415 14.5413Z" fill="#2E8AC1"/>
<path fill-rule="evenodd" clip-rule="evenodd" d="M29.7515 12.7976C29.7515 12.1775 30.2542 11.6748 30.8743 11.6748H38.0101C38.6302 11.6748 39.1329 12.1775 39.1329 12.7976C39.1329 13.4177 38.6302 13.9203 38.0101 13.9203H30.8743C30.2542 13.9203 29.7515 13.4177 29.7515 12.7976Z" fill="#2E8AC1"/>
<path fill-rule="evenodd" clip-rule="evenodd" d="M29.7515 17.2243C29.7515 16.6042 30.2542 16.1016 30.8743 16.1016H38.0101C38.6302 16.1016 39.1329 16.6042 39.1329 17.2243C39.1329 17.8444 38.6302 18.3471 38.0101 18.3471H30.8743C30.2542 18.3471 29.7515 17.8444 29.7515 17.2243Z" fill="#2E8AC1"/>
<path fill-rule="evenodd" clip-rule="evenodd" d="M29.7515 21.6516C29.7515 21.0315 30.2542 20.5288 30.8743 20.5288H38.0101C38.6302 20.5288 39.1329 21.0315 39.1329 21.6516C39.1329 22.2717 38.6302 22.7743 38.0101 22.7743H30.8743C30.2542 22.7743 29.7515 22.2717 29.7515 21.6516Z" fill="#2E8AC1"/>
<path fill-rule="evenodd" clip-rule="evenodd" d="M14.7314 12.7976C14.7314 12.1775 15.2341 11.6748 15.8542 11.6748H22.9899C23.61 11.6748 24.1126 12.1775 24.1126 12.7976C24.1126 13.4177 23.61 13.9203 22.9899 13.9203H15.8542C15.2341 13.9203 14.7314 13.4177 14.7314 12.7976Z" fill="#2E8AC1"/>
<path fill-rule="evenodd" clip-rule="evenodd" d="M14.7315 17.2243C14.7315 16.6042 15.2341 16.1016 15.8542 16.1016H22.9899C23.61 16.1016 24.1126 16.6042 24.1126 17.2243C24.1126 17.8444 23.61 18.3471 22.9899 18.3471H15.8542C15.2341 18.3471 14.7315 17.8444 14.7315 17.2243Z" fill="#2E8AC1"/>
<path fill-rule="evenodd" clip-rule="evenodd" d="M14.7315 21.6516C14.7315 21.0315 15.2341 20.5288 15.8542 20.5288H22.9899C23.61 20.5288 24.1126 21.0315 24.1126 21.6516C24.1126 22.2717 23.61 22.7743 22.9899 22.7743H15.8542C15.2341 22.7743 14.7315 22.2717 14.7315 21.6516Z" fill="#2E8AC1"/>
<path fill-rule="evenodd" clip-rule="evenodd" d="M16.0597 10.4568C16.0597 8.09624 17.9734 6.18262 20.3339 6.18262H33.5301C35.8907 6.18262 37.8043 8.09624 37.8043 10.4568V26.8045C37.8043 27.4246 37.3016 27.9273 36.6815 27.9273H18.9921C18.4212 27.9273 17.8571 27.9581 17.3008 28.017C16.9842 28.0506 16.6683 27.9481 16.4316 27.7352C16.1949 27.5223 16.0597 27.2189 16.0597 26.9005V10.4568ZM20.3339 8.42815C19.2135 8.42815 18.3053 9.33641 18.3053 10.4568V25.6948C18.5331 25.6862 18.7621 25.6818 18.9921 25.6818H35.5587V10.4568C35.5587 9.33641 34.6505 8.42815 33.5301 8.42815H20.3339Z" fill="#2E8AC1"/>
<path fill-rule="evenodd" clip-rule="evenodd" d="M21.5267 2.50705C21.5267 1.12244 22.6492 0 24.0338 0H29.8306C31.2153 0 32.3377 1.12244 32.3377 2.50705V7.30572C32.3377 7.92581 31.835 8.42849 31.2149 8.42849H22.6495C22.0294 8.42849 21.5267 7.92581 21.5267 7.30572V2.50705ZM24.0338 2.24553C23.8893 2.24553 23.7723 2.36262 23.7723 2.50705V6.18295H30.0922V2.50705C30.0922 2.36262 29.9751 2.24553 29.8306 2.24553H24.0338Z" fill="#2E8AC1"/>
<path fill-rule="evenodd" clip-rule="evenodd" d="M54.0489 9.80127C54.669 9.80127 55.1717 10.3039 55.1717 10.924V14.3922C55.1717 15.0122 54.669 15.5149 54.0489 15.5149C53.4288 15.5149 52.9262 15.0122 52.9262 14.3922V10.924C52.9262 10.3039 53.4288 9.80127 54.0489 9.80127Z" fill="#2E8AC1"/>
<path fill-rule="evenodd" clip-rule="evenodd" d="M51.8962 14.5412C51.8962 13.9211 52.3989 13.4185 53.019 13.4185H55.0898C55.7099 13.4185 56.2126 13.9211 56.2126 14.5412C56.2126 15.1613 55.7099 15.664 55.0898 15.664H53.019C52.3989 15.664 51.8962 15.1613 51.8962 14.5412Z" fill="#2E8AC1"/>
<path fill-rule="evenodd" clip-rule="evenodd" d="M50.5909 20.7581C50.8984 20.5491 51.2895 20.5059 51.6353 20.6428C52.3828 20.9388 53.1958 21.103 54.0489 21.103C54.9018 21.103 55.715 20.9388 56.4625 20.6428C56.8083 20.5059 57.1994 20.5491 57.5069 20.7581C57.8145 20.9671 57.9986 21.3149 57.9986 21.6867V26.8046C57.9986 27.4247 57.4959 27.9273 56.8759 27.9273H51.2219C50.6019 27.9273 50.0992 27.4247 50.0992 26.8046V21.6867C50.0992 21.3149 50.2833 20.9671 50.5909 20.7581ZM52.3447 23.1825V25.6818H55.7531V23.1825C55.2017 23.2912 54.6319 23.3486 54.0489 23.3486C53.4658 23.3486 52.8961 23.2912 52.3447 23.1825Z" fill="#2E8AC1"/>
<path fill-rule="evenodd" clip-rule="evenodd" d="M27.447 59.6746C27.3621 59.6727 27.2758 59.6806 27.1897 59.6989C26.6709 59.8089 26.2998 60.2669 26.2998 60.7972V60.7973C26.2998 60.9685 26.3381 61.1307 26.4066 61.2758C26.7722 62.1074 26.9766 63.0251 26.9766 63.9927C26.9766 64.9158 26.7914 65.7933 26.458 66.593C26.3135 66.9395 26.3518 67.3353 26.56 67.6477C26.7683 67.9602 27.1189 68.1478 27.4943 68.1478H33.271C33.8911 68.1478 34.3937 67.6451 34.3937 67.0251C34.3937 66.405 33.8911 65.9023 33.271 65.9023H29.0186C29.1519 65.2865 29.2222 64.6475 29.2222 63.9927C29.2222 63.2796 29.1385 62.5857 28.9811 61.9201H44.8177V64.1309C44.8177 65.1092 44.0246 65.9023 43.0463 65.9023H38.5105C37.8904 65.9023 37.3877 66.405 37.3877 67.0251C37.3877 67.6451 37.8904 68.1478 38.5105 68.1478H43.0463C45.2647 68.1478 47.0632 66.3493 47.0632 64.1309V60.7973C47.0632 60.1773 46.5606 59.6746 45.9405 59.6746H27.447Z" fill="#2E8AC1"/>
<path fill-rule="evenodd" clip-rule="evenodd" d="M52.926 26.8044C52.926 26.1843 53.4287 25.6816 54.0488 25.6816H59.4008C59.5053 25.6816 59.6084 25.6835 59.7 25.6852C59.7077 25.6853 59.7153 25.6854 59.7228 25.6856C60.335 25.6965 60.8255 26.1959 60.8255 26.8081V41.1811C60.8255 41.8011 60.3228 42.3038 59.7027 42.3038C59.0826 42.3038 58.58 41.8011 58.58 41.1811V27.9272H55.1715V59.6744H58.58V46.4206C58.58 45.8006 59.0826 45.2979 59.7027 45.2979C60.3228 45.2979 60.8255 45.8006 60.8255 46.4206V60.7933C60.8255 61.4055 60.3349 61.9049 59.7228 61.9158L59.6864 61.9165C59.5992 61.9181 59.5002 61.9199 59.4008 61.9199H54.0488C53.4287 61.9199 52.926 61.4172 52.926 60.7971V26.8044Z" fill="#2E8AC1"/>
</svg>
