<svg width="73" height="73" viewBox="0 0 73 73" fill="none" xmlns="http://www.w3.org/2000/svg">
<path d="M17.1998 26.9416L14.6283 33.3715C14.3028 32.9183 13.8743 32.5488 13.3781 32.2936C12.8819 32.0383 12.3322 31.9045 11.7742 31.9032H9.41937C8.48256 31.9032 7.58412 32.2754 6.92169 32.9378C6.25926 33.6002 5.88712 34.4987 5.88712 35.4355C5.88712 36.3723 6.25926 37.2708 6.92169 37.9332C7.58412 38.5956 8.48256 38.9678 9.41937 38.9678H11.9296L9.74552 42.2422C8.76388 43.7128 8.24062 45.4416 8.24195 47.2097V63.6936C8.24195 64.6304 8.6141 65.5288 9.27653 66.1912C9.93896 66.8537 10.8374 67.2258 11.7742 67.2258H16.4839C17.4207 67.2258 18.3191 66.8537 18.9816 66.1912C19.644 65.5288 20.0161 64.6304 20.0161 63.6936V60.1613H52.9839V63.6936C52.9839 64.6304 53.356 65.5288 54.0185 66.1912C54.6809 66.8537 55.5793 67.2258 56.5162 67.2258H61.2258C62.1626 67.2258 63.0611 66.8537 63.7235 66.1912C64.3859 65.5288 64.7581 64.6304 64.7581 63.6936V47.2097C64.7594 45.4416 64.2362 43.7128 63.2545 42.2422L61.0704 38.9678H63.5807C64.5175 38.9678 65.4159 38.5956 66.0783 37.9332C66.7408 37.2708 67.1129 36.3723 67.1129 35.4355C67.1129 34.4987 66.7408 33.6002 66.0783 32.9378C65.4159 32.2754 64.5175 31.9032 63.5807 31.9032H61.2258C60.6678 31.9045 60.1181 32.0383 59.6219 32.2936C59.1258 32.5488 58.6973 32.9183 58.3718 33.3715L55.8003 26.9416C55.5616 26.3472 55.1856 25.8178 54.7031 25.3967C54.2205 24.9755 53.6451 24.6746 53.0239 24.5185C47.6198 23.1677 42.0704 22.4844 36.5 22.4839H36.493C30.9249 22.4846 25.3779 23.1679 19.9761 24.5185C19.3549 24.6746 18.7795 24.9755 18.297 25.3967C17.8144 25.8178 17.4384 26.3472 17.1998 26.9416V26.9416ZM8.24195 35.4355C8.24195 35.1232 8.366 34.8237 8.58681 34.6029C8.80762 34.3821 9.1071 34.2581 9.41937 34.2581H11.7742C12.0865 34.2581 12.386 34.3821 12.6068 34.6029C12.8276 34.8237 12.9516 35.1232 12.9516 35.4355V36.6129H9.41937C9.1071 36.6129 8.80762 36.4889 8.58681 36.2681C8.366 36.0473 8.24195 35.7478 8.24195 35.4355ZM10.638 46.6445L18.3371 47.9267C18.835 48.0093 19.2836 48.2761 19.5938 48.6742C19.9039 49.0723 20.053 49.5726 20.0113 50.0755C19.9696 50.5784 19.7403 51.0473 19.3688 51.3889C18.9973 51.7305 18.511 51.9199 18.0063 51.9194H10.5968V47.2097C10.5968 47.019 10.6215 46.8329 10.638 46.6445V46.6445ZM17.6613 63.6936C17.6613 64.0058 17.5373 64.3053 17.3165 64.5261C17.0956 64.7469 16.7962 64.871 16.4839 64.871H11.7742C11.4619 64.871 11.1625 64.7469 10.9417 64.5261C10.7208 64.3053 10.5968 64.0058 10.5968 63.6936V59.509C11.3096 59.9323 12.1226 60.1575 12.9516 60.1613H17.6613V63.6936ZM61.2258 64.871H56.5162C56.2039 64.871 55.9044 64.7469 55.6836 64.5261C55.4628 64.3053 55.3387 64.0058 55.3387 63.6936V60.1613H60.0484C60.8773 60.1574 61.6901 59.9326 62.4032 59.5102V63.6936C62.4032 64.0058 62.2792 64.3053 62.0584 64.5261C61.8376 64.7469 61.5381 64.871 61.2258 64.871ZM62.4032 47.2097V51.9194H54.9937C54.4891 51.9199 54.0027 51.7305 53.6312 51.3889C53.2598 51.0473 53.0304 50.5784 52.9887 50.0755C52.947 49.5726 53.0961 49.0723 53.4063 48.6742C53.7164 48.2761 54.165 48.0093 54.6629 47.9267L62.362 46.6445C62.3785 46.8329 62.4032 47.019 62.4032 47.2097ZM61.7533 44.358L54.2791 45.6049C53.1998 45.7858 52.2278 46.3655 51.5558 47.2292C50.8838 48.0929 50.5607 49.1775 50.6506 50.2681C50.7405 51.3588 51.2368 52.3758 52.0412 53.1178C52.8456 53.8598 53.8994 54.2725 54.9937 54.2742H62.4032V55.4516C62.4032 56.0762 62.1552 56.6751 61.7135 57.1168C61.2719 57.5584 60.673 57.8065 60.0484 57.8065H12.9516C12.3271 57.8065 11.7281 57.5584 11.2865 57.1168C10.8449 56.6751 10.5968 56.0762 10.5968 55.4516V54.2742H18.0063C19.1009 54.2734 20.1553 53.8613 20.9604 53.1196C21.7654 52.3779 22.2624 51.3608 22.3528 50.2699C22.4432 49.179 22.1204 48.0939 21.4483 47.2299C20.7763 46.3658 19.8041 45.7858 18.7245 45.6049L11.2467 44.358C11.3805 44.0781 11.5335 43.8078 11.7047 43.5491L14.7178 39.0266L17.5907 39.288C23.8545 39.8567 30.2161 40.1452 36.5 40.1452C42.7839 40.1452 49.1455 39.8567 55.407 39.288L58.2799 39.0266L61.2953 43.5491C61.4665 43.8078 61.6196 44.0781 61.7533 44.358V44.358ZM41.2156 37.7326C41.2235 36.8303 41.5778 35.9654 42.2052 35.3168C42.8326 34.6681 43.6852 34.2853 44.5868 34.2473C45.4884 34.2094 46.3702 34.5193 47.0498 35.1129C47.7295 35.7065 48.1552 36.5386 48.2389 37.4371C45.9017 37.5737 43.5645 37.6797 41.2156 37.7326ZM50.5808 37.3088C50.4711 35.7899 49.7756 34.3731 48.641 33.3574C47.5064 32.3417 46.0215 31.8067 44.4998 31.8652C42.9781 31.9237 41.5387 32.5712 40.4855 33.6711C39.4322 34.7709 38.8475 36.2369 38.8549 37.7597C32.8123 37.828 26.7651 37.6349 20.765 37.1769L23.2305 30.601C32.0189 29.1993 40.974 29.1993 49.7625 30.601L52.2292 37.1769C51.6817 37.2193 51.1318 37.2711 50.5808 37.3088ZM60.0484 35.4355C60.0484 35.1232 60.1725 34.8237 60.3933 34.6029C60.6141 34.3821 60.9136 34.2581 61.2258 34.2581H63.5807C63.8929 34.2581 64.1924 34.3821 64.4132 34.6029C64.634 34.8237 64.7581 35.1232 64.7581 35.4355C64.7581 35.7478 64.634 36.0473 64.4132 36.2681C64.1924 36.4889 63.8929 36.6129 63.5807 36.6129H60.0484V35.4355ZM20.5531 26.8015C25.7662 25.4986 31.1194 24.8394 36.493 24.8387H36.5C41.8775 24.8393 47.2347 25.4988 52.4517 26.8027C52.7115 26.8679 52.9522 26.9938 53.154 27.17C53.3558 27.3462 53.513 27.5677 53.6126 27.8164L57.1908 36.7648L55.1892 36.9473C55.0161 36.9626 54.843 36.9732 54.67 36.9885L51.7264 29.1398C51.6353 28.9398 51.4965 28.7651 51.3222 28.6311C51.148 28.497 50.9435 28.4077 50.7268 28.371C41.2743 26.7975 31.6262 26.8031 22.1755 28.3875C21.972 28.4216 21.7809 28.5086 21.6216 28.6398C21.4623 28.7711 21.3402 28.9419 21.2677 29.1351L18.3242 36.9838C18.1511 36.9685 17.978 36.9579 17.8061 36.9426L15.8045 36.7601L19.3827 27.8117C19.484 27.5628 19.6429 27.3414 19.8463 27.1658C20.0498 26.9901 20.292 26.8653 20.5531 26.8015V26.8015Z" fill="#2E8AC1"/>
<path d="M47.0968 48.3867H25.9032C25.5909 48.3867 25.2915 48.5108 25.0707 48.7316C24.8498 48.9524 24.7258 49.2519 24.7258 49.5641V51.919C24.7258 52.8558 25.0979 53.7542 25.7604 54.4167C26.4228 55.0791 27.3212 55.4512 28.2581 55.4512H44.7419C45.6787 55.4512 46.5772 55.0791 47.2396 54.4167C47.902 53.7542 48.2742 52.8558 48.2742 51.919V49.5641C48.2742 49.2519 48.1501 48.9524 47.9293 48.7316C47.7085 48.5108 47.409 48.3867 47.0968 48.3867ZM45.9193 51.919C45.9193 52.2312 45.7953 52.5307 45.5745 52.7515C45.3537 52.9723 45.0542 53.0964 44.7419 53.0964H28.2581C27.9458 53.0964 27.6463 52.9723 27.4255 52.7515C27.2047 52.5307 27.0806 52.2312 27.0806 51.919V50.7416H45.9193V51.919Z" fill="#2E8AC1"/>
<path d="M58.8709 24.8384H61.2258C61.2239 22.9654 60.479 21.1696 59.1546 19.8451C57.8301 18.5207 56.0343 17.7758 54.1613 17.7739V20.1288C55.4103 20.1288 56.6083 20.625 57.4915 21.5082C58.3747 22.3914 58.8709 23.5894 58.8709 24.8384Z" fill="#2E8AC1"/>
<path d="M64.758 24.8388H67.1129C67.1088 21.4051 65.743 18.1131 63.315 15.6851C60.8869 13.2571 57.595 11.8913 54.1613 11.8872V14.242C56.9706 14.2455 59.664 15.363 61.6505 17.3496C63.6371 19.3361 64.7546 22.0294 64.758 24.8388V24.8388Z" fill="#2E8AC1"/>
<path d="M54.1613 6V8.35484C58.5316 8.35951 62.7216 10.0977 65.812 13.188C68.9023 16.2783 70.6405 20.4684 70.6451 24.8387H73C72.994 19.8442 71.0074 15.0559 67.4757 11.5243C63.944 7.99261 59.1558 6.00592 54.1613 6V6Z" fill="#2E8AC1"/>
<path d="M14.129 24.8384C14.129 23.5894 14.6252 22.3914 15.5084 21.5082C16.3917 20.625 17.5896 20.1288 18.8387 20.1288V17.7739C16.9656 17.7758 15.1698 18.5207 13.8454 19.8451C12.5209 21.1696 11.776 22.9654 11.7742 24.8384H14.129Z" fill="#2E8AC1"/>
<path d="M18.8387 11.8872C15.405 11.8913 12.1131 13.2571 9.68503 15.6851C7.25701 18.1131 5.89117 21.4051 5.88712 24.8388H8.24195C8.24538 22.0294 9.36292 19.3361 11.3495 17.3496C13.336 15.363 16.0293 14.2455 18.8387 14.242V11.8872Z" fill="#2E8AC1"/>
<path d="M18.8387 8.35484V6C13.8442 6.00592 9.05593 7.99261 5.52427 11.5243C1.99261 15.0559 0.00592045 19.8442 0 24.8387H2.35484C2.35951 20.4684 4.0977 16.2783 7.18802 13.188C10.2783 10.0977 14.4684 8.35951 18.8387 8.35484V8.35484Z" fill="#2E8AC1"/>
</svg>
