<svg width="73" height="73" viewBox="0 0 73 73" fill="none" xmlns="http://www.w3.org/2000/svg">
<path d="M58.4 41.4167V40.2C58.4 38.1841 56.7659 36.55 54.75 36.55C52.7382 36.56 51.11 38.1882 51.1 40.2V41.4167H46.8161C46.1483 40.5975 45.3801 39.8654 44.53 39.2376C44.2867 39.0551 44.0433 38.8848 43.8 38.7278V32.9H46.2333C48.2451 32.89 49.8733 31.2618 49.8833 29.25C49.8833 27.2341 48.2492 25.6 46.2333 25.6H41.3667V23.1667H43.8C44.4719 23.1667 45.0167 22.6219 45.0167 21.95V18.3H52.3167C54.3325 18.3 55.9667 16.6659 55.9667 14.65C55.9667 12.6341 54.3325 11 52.3167 11H20.6833C18.6675 11 17.0333 12.6341 17.0333 14.65C17.0333 16.6659 18.6675 18.3 20.6833 18.3H27.9833V21.95C27.9833 22.6219 28.5281 23.1667 29.2 23.1667H31.6333V25.6H26.7667C24.7549 25.61 23.1267 27.2382 23.1167 29.25C23.1167 31.2659 24.7508 32.9 26.7667 32.9H29.2V38.7278C28.9567 38.8848 28.7133 39.0527 28.4785 39.2328C27.6247 39.8612 26.8538 40.595 26.1839 41.4167H21.9V40.2C21.89 38.1882 20.2618 36.56 18.25 36.55C16.2341 36.55 14.6 38.1841 14.6 40.2V41.4167H0V58.45H14.6V59.6667C14.6 61.6825 16.2341 63.3167 18.25 63.3167C20.2659 63.3167 21.9 61.6825 21.9 59.6667V58.45H26.1863C30.8776 64.1461 39.2983 64.9605 44.9945 60.2692C45.658 59.7228 46.2673 59.1135 46.8137 58.45H51.1V59.6667C51.1 61.6825 52.7341 63.3167 54.75 63.3167C56.7659 63.3167 58.4 61.6825 58.4 59.6667V58.45H73V41.4167H58.4ZM14.6 56.0167H2.43333V43.85H14.6V56.0167ZM19.4667 59.6667C19.4667 60.3386 18.9219 60.8833 18.25 60.8833C17.5781 60.8833 17.0333 60.3386 17.0333 59.6667V40.2C17.0333 39.5281 17.5781 38.9833 18.25 38.9833C18.5779 38.9823 18.8915 39.117 19.1163 39.3556C19.3433 39.5775 19.4699 39.8826 19.4667 40.2V59.6667ZM20.6833 15.8667C20.0114 15.8667 19.4667 15.3219 19.4667 14.65C19.4667 13.9781 20.0114 13.4333 20.6833 13.4333H52.3167C52.9886 13.4333 53.5333 13.9781 53.5333 14.65C53.5333 15.3219 52.9886 15.8667 52.3167 15.8667H20.6833ZM30.4167 20.7333V18.3H42.5833V20.7333H30.4167ZM38.9333 23.1667V25.6H34.0667V23.1667H38.9333ZM26.7667 30.4667C26.0948 30.4667 25.55 29.9219 25.55 29.25C25.5489 28.9221 25.6837 28.6085 25.9223 28.3837C26.1442 28.1567 26.4493 28.0301 26.7667 28.0333H46.2333C46.9052 28.0333 47.45 28.5781 47.45 29.25C47.4511 29.5779 47.3163 29.8915 47.0777 30.1163C46.8558 30.3433 46.5507 30.4699 46.2333 30.4667H26.7667ZM51.1 56.0167H46.2212C45.8382 56.0167 45.4776 56.197 45.2478 56.5033C41.6328 61.3346 34.7856 62.3205 29.9543 58.7055C29.1189 58.0803 28.3772 57.3387 27.7522 56.5033C27.5224 56.197 27.1618 56.0167 26.7788 56.0167H21.9V43.85H26.7788C27.1633 43.848 27.5242 43.6645 27.7522 43.3548C28.6367 42.1807 29.7501 41.1981 31.025 40.4665C31.4026 40.2485 31.6347 39.8452 31.6333 39.4092V32.9H41.3667V39.4092C41.3655 39.8452 41.5974 40.2485 41.975 40.4665C42.3552 40.6864 42.7208 40.9302 43.07 41.1964C43.8958 41.8045 44.6252 42.5339 45.2332 43.3597C45.4612 43.6693 45.8221 43.8529 46.2066 43.8549H51.1V56.0167ZM55.9667 59.6667C55.9667 60.3386 55.4219 60.8833 54.75 60.8833C54.0781 60.8833 53.5333 60.3386 53.5333 59.6667V40.2C53.5323 39.8721 53.667 39.5585 53.9056 39.3337C54.1275 39.1067 54.4326 38.9801 54.75 38.9833C55.4219 38.9833 55.9667 39.5281 55.9667 40.2V59.6667ZM70.5667 56.0167H58.4V43.85H70.5667V56.0167Z" fill="#2E8AC1"/>
</svg>
