<svg width="53" height="22" viewBox="0 0 53 22" fill="none" xmlns="http://www.w3.org/2000/svg">
<path d="M33.2297 6.52017C33.5417 6.52017 33.8363 6.36462 34.0037 6.10111C35.6974 3.43119 38.7315 1.6918 42.1526 1.8382C46.8968 2.04133 50.7315 5.89249 50.9154 10.6367C51.1176 15.8576 46.9288 20.169 41.7527 20.169C38.4945 20.169 35.6287 18.4607 34.0019 15.8933C33.8363 15.6325 33.5453 15.4779 33.2361 15.4779C32.5141 15.4779 32.0768 16.2748 32.4638 16.8842C34.4704 20.0427 38.0416 22.1124 42.0775 21.9953C47.83 21.8287 52.5202 17.1861 52.7435 11.4355C52.986 5.1724 47.9618 0 41.7518 0C37.8503 0 34.4173 2.04133 32.4638 5.11292C32.0759 5.72322 32.5059 6.52108 33.2287 6.52108L33.2297 6.52017Z" fill="#065090"/>
<path d="M44.2239 11.0003C44.2239 11.5054 43.814 11.9153 43.3089 11.9153L3.04242 11.9153C2.53735 11.9153 2.12744 11.5054 2.12744 11.0003C2.12744 10.4952 2.53735 10.0853 3.04242 10.0853L43.3089 10.0853C43.814 10.0853 44.2239 10.4952 44.2239 11.0003Z" fill="#065090"/>
<path d="M12 4.4494C12 4.75043 11.8518 5.04505 11.58 5.21982L2.60496 10.9998L11.58 16.7797C12.0046 17.0533 12.1281 17.6188 11.8536 18.0442C11.58 18.4688 11.0136 18.5914 10.5891 18.3178L0.419977 11.7693C0.158292 11.6009 0 11.3109 0 10.9998C0 10.6887 0.158292 10.3986 0.419977 10.2303L10.59 3.68081C11.0146 3.40723 11.5809 3.52984 11.8545 3.95439C11.9533 4.1072 12 4.27921 12 4.44848V4.4494Z" fill="#065090"/>
</svg>
