<svg width="15" height="36" viewBox="0 0 15 36" fill="none" xmlns="http://www.w3.org/2000/svg">
<path d="M10.5544 13.3106C10.5544 13.0979 10.6605 12.897 10.8402 12.7829C12.6606 11.6281 13.8465 9.55942 13.7467 7.22683C13.6082 3.99216 10.9824 1.3776 7.74772 1.2522C4.18802 1.11433 1.24843 3.97033 1.24843 7.49946C1.24843 9.72099 2.41316 11.6749 4.16369 12.7841C4.34149 12.897 4.44692 13.0954 4.44692 13.3063C4.44692 13.7985 3.90354 14.0967 3.48806 13.8328C1.33452 12.4647 -0.076631 10.0298 0.00322201 7.27799C0.116763 3.35583 3.28219 0.157969 7.2031 0.00574875C11.4734 -0.159573 15 3.266 15 7.50008C15 10.1602 13.6082 12.5009 11.5139 13.8328C11.0978 14.0973 10.5538 13.8041 10.5538 13.3113L10.5544 13.3106Z" fill="#A7BDBC"/>
<path d="M7.49983 5.81464C7.15546 5.81464 6.87598 6.09413 6.87598 6.4385V33.8929C6.87598 34.2373 7.15546 34.5168 7.49983 34.5168C7.84419 34.5168 8.12368 34.2373 8.12368 33.8929V6.4385C8.12368 6.09413 7.84419 5.81464 7.49983 5.81464Z" fill="#A7BDBC"/>
<path d="M11.9663 27.7855C11.761 27.7855 11.5602 27.8865 11.441 28.0718L7.50013 34.1912L3.55925 28.0718C3.37272 27.7823 2.98718 27.6981 2.69709 27.8853C2.40762 28.0718 2.32403 28.458 2.51056 28.7474L6.97547 35.6809C7.09026 35.8594 7.28802 35.9673 7.50013 35.9673C7.71224 35.9673 7.91 35.8594 8.02479 35.6809L12.4903 28.7468C12.6769 28.4574 12.5933 28.0712 12.3038 27.8847C12.1996 27.8173 12.0823 27.7855 11.9669 27.7855H11.9663Z" fill="#A7BDBC"/>
</svg>
