<svg width="15" height="36" viewBox="0 0 15 36" fill="none" xmlns="http://www.w3.org/2000/svg">
<path d="M10.5544 22.6566C10.5544 22.8694 10.6605 23.0703 10.8402 23.1844C12.6606 24.3392 13.8465 26.4079 13.7467 28.7405C13.6082 31.9751 10.9824 34.5897 7.74772 34.7151C4.18802 34.853 1.24843 31.997 1.24843 28.4678C1.24843 26.2463 2.41316 24.2924 4.16369 23.1832C4.34149 23.0703 4.44692 22.8719 4.44692 22.661C4.44692 22.1688 3.90354 21.8706 3.48806 22.1345C1.33452 23.5026 -0.076631 25.9375 0.00322201 28.6893C0.116763 32.6115 3.28219 35.8093 7.2031 35.9615C11.4734 36.1269 15 32.7013 15 28.4672C15 25.8071 13.6082 23.4664 11.5139 22.1345C11.0978 21.87 10.5538 22.1632 10.5538 22.656L10.5544 22.6566Z" fill="#A7BDBC"/>
<path d="M7.49983 30.1526C7.15546 30.1526 6.87598 29.8731 6.87598 29.5288V2.07432C6.87598 1.72996 7.15546 1.45047 7.49983 1.45047C7.84419 1.45047 8.12368 1.72996 8.12368 2.07432V29.5288C8.12368 29.8731 7.84419 30.1526 7.49983 30.1526Z" fill="#A7BDBC"/>
<path d="M11.9663 8.18182C11.761 8.18182 11.5602 8.08075 11.441 7.89547L7.50013 1.77611L3.55925 7.89547C3.37272 8.18494 2.98718 8.26916 2.69709 8.082C2.40762 7.89547 2.32403 7.50931 2.51056 7.21984L6.97547 0.286348C7.09026 0.107926 7.28802 0 7.50013 0C7.71224 0 7.91 0.107926 8.02479 0.286348L12.4903 7.22046C12.6769 7.50993 12.5933 7.89609 12.3038 8.08263C12.1996 8.15 12.0823 8.18182 11.9669 8.18182H11.9663Z" fill="#A7BDBC"/>
</svg>
