<svg width="36" height="15" viewBox="0 0 36 15" fill="none" xmlns="http://www.w3.org/2000/svg">
<path d="M22.6566 4.44557C22.8694 4.44557 23.0703 4.33951 23.1844 4.15985C24.3392 2.33945 26.4079 1.1535 28.7405 1.25332C31.9751 1.39181 34.5897 4.01761 34.7151 7.25228C34.853 10.812 31.997 13.7516 28.4678 13.7516C26.2463 13.7516 24.2924 12.5868 23.1832 10.8363C23.0703 10.6585 22.8719 10.5531 22.661 10.5531C22.1688 10.5531 21.8706 11.0965 22.1345 11.5119C23.5026 13.6655 25.9375 15.0766 28.6893 14.9968C32.6115 14.8832 35.8093 11.7178 35.9615 7.7969C36.1269 3.52664 32.7013 0 28.4672 0C25.8071 0 23.4664 1.39181 22.1345 3.48608C21.87 3.90219 22.1632 4.44619 22.656 4.44619L22.6566 4.44557Z" fill="#2E8AC1"/>
<path d="M30.1526 7.50017C30.1526 7.84454 29.8732 8.12402 29.5288 8.12402L2.07435 8.12402C1.72999 8.12402 1.4505 7.84454 1.4505 7.50017C1.4505 7.15581 1.72999 6.87632 2.07435 6.87632L29.5288 6.87632C29.8732 6.87632 30.1526 7.15581 30.1526 7.50017Z" fill="#2E8AC1"/>
<path d="M8.18182 3.03372C8.18182 3.23896 8.08075 3.43984 7.89547 3.559L1.77611 7.49987L7.89547 11.4407C8.18494 11.6273 8.26916 12.0128 8.082 12.3029C7.89547 12.5924 7.50931 12.676 7.21984 12.4894L0.286348 8.02453C0.107926 7.90974 0 7.71198 0 7.49987C0 7.28776 0.107926 7.09 0.286348 6.97521L7.22046 2.50968C7.50993 2.32315 7.89609 2.40674 8.08263 2.69621C8.15 2.8004 8.18182 2.91768 8.18182 3.03309V3.03372Z" fill="#2E8AC1"/>
</svg>
