<svg width="36" height="15" viewBox="0 0 36 15" fill="none" xmlns="http://www.w3.org/2000/svg">
<path d="M13.3106 4.44557C13.0979 4.44557 12.897 4.33951 12.7829 4.15985C11.6281 2.33945 9.55942 1.1535 7.22683 1.25332C3.99216 1.39181 1.3776 4.01761 1.2522 7.25228C1.11433 10.812 3.97033 13.7516 7.49946 13.7516C9.72099 13.7516 11.6749 12.5868 12.7841 10.8363C12.897 10.6585 13.0954 10.5531 13.3063 10.5531C13.7985 10.5531 14.0967 11.0965 13.8328 11.5119C12.4647 13.6655 10.0298 15.0766 7.27799 14.9968C3.35583 14.8832 0.157969 11.7178 0.00574875 7.7969C-0.159573 3.52664 3.266 0 7.50008 0C10.1602 0 12.5009 1.39181 13.8328 3.48608C14.0973 3.90219 13.8041 4.44619 13.3113 4.44619L13.3106 4.44557Z" fill="#2E8AC1"/>
<path d="M5.81464 7.50017C5.81464 7.84454 6.09413 8.12402 6.4385 8.12402L33.8929 8.12402C34.2373 8.12402 34.5168 7.84454 34.5168 7.50017C34.5168 7.15581 34.2373 6.87632 33.8929 6.87632L6.4385 6.87632C6.09413 6.87632 5.81464 7.15581 5.81464 7.50017Z" fill="#2E8AC1"/>
<path d="M27.7855 3.03372C27.7855 3.23896 27.8865 3.43984 28.0718 3.559L34.1912 7.49987L28.0718 11.4407C27.7823 11.6273 27.6981 12.0128 27.8853 12.3029C28.0718 12.5924 28.458 12.676 28.7474 12.4894L35.6809 8.02453C35.8594 7.90974 35.9673 7.71198 35.9673 7.49987C35.9673 7.28776 35.8594 7.09 35.6809 6.97521L28.7468 2.50968C28.4574 2.32315 28.0712 2.40674 27.8847 2.69621C27.8173 2.8004 27.7855 2.91768 27.7855 3.03309V3.03372Z" fill="#2E8AC1"/>
</svg>
