<svg width="15" height="15" viewBox="0 0 15 15" fill="none" xmlns="http://www.w3.org/2000/svg">
<circle cx="7.5" cy="7.5" r="7.5" transform="matrix(0 1 1 0 0 0)" fill="#065090"/>
<g clip-path="url(#clip0_446_12211)">
<path d="M10.4412 6.46382C10.3522 6.35831 10.1946 6.34489 10.0891 6.43384L7.76904 8.39027C7.72192 8.42996 7.65296 8.42996 7.60585 8.39027L5.28592 6.43384C5.18041 6.34489 5.02278 6.35831 4.93384 6.46382C4.84489 6.56933 4.85831 6.72695 4.96382 6.8159L7.28261 8.77119C7.51647 8.96836 7.85841 8.96836 8.09242 8.77119L10.4112 6.8159C10.5167 6.72695 10.5301 6.56933 10.4412 6.46382V6.46382Z" fill="white"/>
</g>
<defs>
<clipPath id="clip0_446_12211">
<rect width="2.54409" height="5.625" fill="white" transform="matrix(0 1 1 0 4.875 6.375)"/>
</clipPath>
</defs>
</svg>
