<svg width="54" height="22" viewBox="0 0 54 22" fill="none" xmlns="http://www.w3.org/2000/svg">
<path d="M20.1224 6.52017C19.8104 6.52017 19.5158 6.36462 19.3483 6.10111C17.6547 3.43119 14.6206 1.6918 11.1995 1.8382C6.45529 2.04133 2.6206 5.89249 2.43669 10.6367C2.23448 15.8576 6.42327 20.169 11.5993 20.169C14.8576 20.169 17.7233 18.4607 19.3501 15.8933C19.5158 15.6325 19.8067 15.4779 20.116 15.4779C20.8379 15.4779 21.2753 16.2748 20.8882 16.8842C18.8817 20.0427 15.3105 22.1124 11.2745 21.9953C5.52201 21.8287 0.831808 17.1861 0.608553 11.4355C0.366083 5.1724 5.39025 0 11.6002 0C15.5017 0 18.9347 2.04133 20.8882 5.11292C21.2762 5.72322 20.8461 6.52108 20.1233 6.52108L20.1224 6.52017Z" fill="#065090"/>
<path d="M9.12813 11.0003C9.12813 11.5054 9.53805 11.9153 10.0431 11.9153L50.3096 11.9153C50.8147 11.9153 51.2246 11.5054 51.2246 11.0003C51.2246 10.4952 50.8147 10.0853 50.3096 10.0853L10.0431 10.0853C9.53805 10.0853 9.12813 10.4952 9.12813 11.0003Z" fill="#065090"/>
<path d="M41.3521 4.4494C41.3521 4.75043 41.5003 5.04505 41.772 5.21982L50.7471 10.9998L41.772 16.7797C41.3475 17.0533 41.224 17.6188 41.4984 18.0442C41.772 18.4688 42.3384 18.5914 42.763 18.3178L52.9321 11.7693C53.1938 11.6009 53.3521 11.3109 53.3521 10.9998C53.3521 10.6887 53.1938 10.3986 52.9321 10.2303L42.762 3.68081C42.3375 3.40723 41.7711 3.52984 41.4975 3.95439C41.3987 4.1072 41.3521 4.27921 41.3521 4.44848V4.4494Z" fill="#065090"/>
</svg>
