<?xml version="1.0" encoding="UTF-8"?><svg id="_圖層_2" xmlns="http://www.w3.org/2000/svg" viewBox="0 0 490.75 490.96"><g id="_圖層_1-2"><path d="M357.92,0C330.59,0,304.34,8.23,282.01,23.8c-14.89,10.38-27.34,23.49-36.8,38.63-9.45-15.13-21.91-28.25-36.8-38.63C186.08,8.23,159.83,0,132.54,0c-.12,0-.23,0-.35,0C98.13,0,66.1,13.24,41.97,37.3,15.47,63.73,.21,101.53,.02,141.1c-.01,.24-.02,.48-.02,.72,0,41.39,13.74,84.07,40.83,126.85,20.28,32.01,47.51,63.43,80.97,93.44,.75,13.71,3.23,27.23,7.43,40.11,8,24.53,21.81,45.66,39.95,61.11,18.97,16.16,41.46,25.3,65.97,27.22,2.36,.27,4.75,.41,7.17,.41,.57,0,1.15-.02,1.72-.04,.31,0,.61,.02,.92,.02,15.6,0,31.91-2.83,48.55-8.53,26.54-9.1,47.55-27.11,60.78-52.1,10.54-19.91,15.74-43.61,14.78-67.02,33.45-30.29,60.69-62.56,80.98-96,27-44.51,40.69-89.8,40.69-134.59C490.75,59.53,431.16,0,357.92,0ZM218.61,458.32c-12.35-10.52-18.27-29.25-15.08-47.72,.02-.1,.03-.2,.05-.3,7.94,2.46,19.41,3.91,33.7,0,23.23-6.37,32.67-30.19,36.47-50.22,11.6,25.62,14.43,46.07,14.31,60.19-.12,14.21-10.2,37.29-28.83,43.67-4.85,1.66-9.54,2.63-14,2.92-3.01,0-5.99-.13-8.93-.38-6.57-1.03-12.53-3.74-17.7-8.15Zm114.47-39.23c-7.02,13.26-16.5,23.76-28.31,31.41,4.67-9.91,7.21-20.46,7.28-30.05,.19-23.37-6.22-61.15-37.85-108.35-3.03-4.52-8.72-6.43-13.87-4.66-5.15,1.77-8.46,6.79-8.06,12.22,.01,.17,1.17,16.7-1.74,33.86-2.29,13.51-7.54,30.31-19.61,33.62-17.7,4.85-27.2-3.03-28.29-4.02-3.12-3.45-7.8-4.6-12.25-3.23-4.49,1.38-7.59,5.44-8.2,10.09-.47,3.61-1.81,13.63-2.31,16.53-2.12,12.27-1.44,24.49,1.69,35.7-21.95-20.46-34.86-51.65-35.93-84.8,.05-.72,.03-1.44-.05-2.15-.14-8.57,.5-17.25,1.99-25.91,.44-2.54,.94-5.11,1.52-7.74l41.63,17.03c4.41,1.8,9.46,.81,12.89-2.5,3.42-3.32,4.55-8.36,2.89-12.83-.09-.24-9.04-24.75-5.23-56.27,4.37-36.19,23.1-66.66,55.75-90.79,3.32,18.73,10.63,47.72,26.34,74.02,1.99,3.34,5.48,5.5,9.36,5.81,3.88,.31,7.66-1.29,10.15-4.27,5.72-6.84,11.45-11.41,16.49-14.46-.95,14.89,1.02,32.47,5.91,52.55,5.01,20.56,11.43,36.77,12.65,39.78,.04,.1,.08,.2,.12,.3,3.86,9.7,6.07,19.87,6.96,32.01,1.23,19.96-3,40.23-11.92,57.08Zm96.45-164.25c-16.66,27.47-38.41,54.18-64.78,79.64-1.18-4.41-2.57-8.69-4.24-12.92-.07-.2-.15-.4-.23-.59-7.28-17.55-23.99-69.31-14.07-97.7,1.31-3.76,.68-7.92-1.7-11.11s-6.15-5-10.15-4.83c-.89,.04-18.55,1.02-37.67,16.87-15.76-33.83-18.31-68.97-18.33-69.36-.27-4.18-2.71-7.92-6.42-9.86-3.71-1.94-8.17-1.8-11.76,.37-61.47,37.13-78.99,85.76-82.86,120.02-1.84,16.32-.85,30.91,.89,42.24l-32.77-13.41c-3.16-1.29-6.71-1.18-9.78,.31-3.07,1.49-5.36,4.21-6.3,7.49-2.37,8.26-4.15,15.88-5.42,23.3-.3,1.76-.57,3.51-.82,5.27-25.14-24.31-45.94-49.37-62.01-74.74-24.47-38.64-36.96-76.77-37.11-113.34,.01-.22,.02-.44,.02-.67,0-33.5,12.72-65.4,34.9-87.52,19.88-19.82,45.2-30.29,73.28-30.29,.1,0,.2,0,.3,0,22.39,0,43.9,6.74,62.19,19.49,17.89,12.47,31.49,29.75,39.33,49.98,1.79,4.62,6.23,7.66,11.19,7.66s9.4-3.04,11.19-7.66c7.84-20.23,21.44-37.51,39.33-49.98,18.29-12.75,39.79-19.49,62.19-19.49,60.01,0,108.83,48.76,108.83,108.7,0,40.34-12.52,81.43-37.21,122.14Z"/></g></svg>