<svg width="25" height="25" viewBox="0 0 25 25" fill="none" xmlns="http://www.w3.org/2000/svg">
<path fill-rule="evenodd" clip-rule="evenodd" d="M20 1.5H5C3.067 1.5 1.5 3.067 1.5 5V20C1.5 21.933 3.067 23.5 5 23.5H20C21.933 23.5 23.5 21.933 23.5 20V5C23.5 3.067 21.933 1.5 20 1.5ZM5 0C2.23858 0 0 2.23858 0 5V20C0 22.7614 2.23858 25 5 25H20C22.7614 25 25 22.7614 25 20V5C25 2.23858 22.7614 0 20 0H5Z" fill="white"/>
<path d="M17.3569 8.98875H19V6.12675C18.7165 6.08775 17.7416 6 16.6062 6C14.2371 6 12.6143 7.49025 12.6143 10.2292V12.75H10V15.9495H12.6143V24H15.8195V15.9503H18.3281L18.7263 12.7508H15.8188V10.5465C15.8195 9.62175 16.0685 8.98875 17.3569 8.98875Z" fill="white"/>
</svg>
