<svg width="15" height="15" viewBox="0 0 15 15" fill="none" xmlns="http://www.w3.org/2000/svg">
<path d="M14.7805 5.68723C14.6873 5.30882 14.5644 4.93925 14.4131 4.58168C14.0413 3.70136 13.4993 2.89273 12.8031 2.19687C11.3947 0.788094 9.52377 0.00852847 7.53285 0.000315869C7.52179 0 7.51106 0 7.5 0C7.48894 0 7.4782 0 7.46715 0.000315869C5.47623 0.00852847 3.60533 0.788094 2.19687 2.19687C1.50069 2.89273 0.958663 3.70136 0.586885 4.58168C0.435584 4.93925 0.312711 5.30882 0.219529 5.68723C0.0745451 6.27316 0 6.8809 0 7.5C0 8.1191 0.0745451 8.72684 0.219529 9.31277C0.312711 9.69118 0.435584 10.0608 0.586885 10.4183C0.958663 11.2986 1.50069 12.1073 2.19687 12.8031C3.60533 14.2119 5.47623 14.9915 7.46715 14.9997C7.4782 15 7.48894 15 7.5 15C7.51106 15 7.52179 15 7.53285 14.9997C9.52377 14.9915 11.3947 14.2119 12.8031 12.8031C13.4993 12.1073 14.0413 11.2986 14.4131 10.4183C14.5644 10.0608 14.6873 9.69118 14.7805 9.31277C14.9255 8.72684 15 8.1191 15 7.5C15 6.8809 14.9255 6.27316 14.7805 5.68723ZM13.1888 4.58168H10.1928C10.0007 3.31063 9.67887 2.16939 9.2316 1.34371C10.9537 1.82888 12.384 3.01908 13.1888 4.58168ZM6.36129 2.7648C6.80446 1.45521 7.28552 1.10554 7.5 1.10554C7.71448 1.10554 8.19554 1.45521 8.63871 2.7648C8.82002 3.30115 8.9669 3.91488 9.07524 4.58168H5.92476C6.0331 3.91488 6.17998 3.30115 6.36129 2.7648ZM5.7684 1.34371C5.32113 2.16939 4.99926 3.31063 4.80721 4.58168H1.81119C2.61603 3.01908 4.04629 1.82888 5.7684 1.34371ZM1.10554 7.5C1.10554 6.87047 1.19683 6.26211 1.36708 5.68723H4.67581C4.62275 6.28169 4.59621 6.89132 4.59621 7.5C4.59621 8.10868 4.62275 8.71831 4.67581 9.31277H1.36708C1.19683 8.73789 1.10554 8.12953 1.10554 7.5ZM1.81119 10.4183H4.80721C4.99926 11.6894 5.32113 12.8306 5.7684 13.6563C4.04629 13.1711 2.61603 11.9809 1.81119 10.4183ZM8.63871 12.2352C8.19554 13.5448 7.71448 13.8945 7.5 13.8945C7.28552 13.8945 6.80446 13.5448 6.36129 12.2352C6.17998 11.6988 6.0331 11.0851 5.92476 10.4183H9.07524C8.9669 11.0851 8.82002 11.6988 8.63871 12.2352ZM5.7842 9.31277C5.72987 8.73094 5.70176 8.12226 5.70176 7.5C5.70176 6.87774 5.72987 6.26906 5.7842 5.68723H9.2158C9.27013 6.26906 9.29824 6.87774 9.29824 7.5C9.29824 8.12226 9.27013 8.73094 9.2158 9.31277H5.7842ZM9.2316 13.6563C9.67887 12.8306 10.0007 11.6894 10.1928 10.4183H13.1888C12.384 11.9809 10.9537 13.1711 9.2316 13.6563ZM13.6329 9.31277H10.3242C10.3773 8.71831 10.4038 8.10868 10.4038 7.5C10.4038 6.89132 10.3773 6.28169 10.3242 5.68723H13.6329C13.8032 6.26211 13.8945 6.87047 13.8945 7.5C13.8945 8.12953 13.8032 8.73789 13.6329 9.31277Z" fill="black"/>
</svg>
