<svg width="20" height="20" viewBox="0 0 20 20" fill="none" xmlns="http://www.w3.org/2000/svg">
<g clip-path="url(#clip0_398_1034)">
<path d="M19.8666 8.33993C19.6891 8.16244 19.401 8.16244 19.2237 8.33993L18.1501 9.41356C17.8895 5.88597 15.3894 2.92616 11.955 2.07931C8.52086 1.2323 4.93133 2.69056 3.06047 5.69249C2.97272 5.83019 2.96556 6.00452 3.04182 6.14905C3.11808 6.29358 3.26593 6.38615 3.42928 6.39131C3.59262 6.39664 3.7463 6.31372 3.83155 6.17436C5.48213 3.52641 8.63875 2.22717 11.675 2.94614C14.7114 3.66511 16.9502 6.24163 17.2383 9.34863L16.2291 8.33993C16.0508 8.16777 15.7672 8.1701 15.5917 8.34559C15.4164 8.52093 15.4139 8.80448 15.5862 8.98298L17.4049 10.8016C17.5824 10.9792 17.8703 10.9792 18.0478 10.8016L19.8666 8.98298C20.0442 8.80548 20.0442 8.51743 19.8666 8.33993Z" fill="#065090"/>
<path d="M16.79 13.7321C16.577 13.5994 16.2966 13.664 16.1631 13.8764C14.5125 16.5247 11.3559 17.8239 8.3193 17.105C5.28289 16.386 3.04406 13.8093 2.75617 10.7022L3.76503 11.711C3.94335 11.8832 4.22691 11.8808 4.40241 11.7054C4.57774 11.53 4.58024 11.2465 4.40791 11.068L2.58916 9.24939C2.41167 9.07173 2.12378 9.07173 1.94628 9.24939L0.127706 11.068C-0.0446279 11.2465 -0.0422968 11.53 0.1332 11.7054C0.308531 11.8808 0.592091 11.8832 0.770585 11.711L1.84405 10.6374C2.1048 14.165 4.60472 17.1248 8.03907 17.9716C11.4734 18.8186 15.0628 17.3606 16.9336 14.3585C17.0665 14.1458 17.0022 13.8656 16.79 13.7321Z" fill="#065090"/>
</g>
<defs>
<clipPath id="clip0_398_1034">
<rect width="20" height="20" fill="white"/>
</clipPath>
</defs>
</svg>
