<svg width="75" height="75" viewBox="0 0 75 75" fill="none" xmlns="http://www.w3.org/2000/svg">
<g clip-path="url(#clip0_334_3490)">
<path d="M5.27329 0C4.74595 0.00878906 4.28452 0.353027 4.14536 0.854004C3.6063 2.78027 2.3231 4.20557 0.787941 4.74756C-0.262352 5.1123 -0.262352 6.59912 0.787941 6.96387C2.3231 7.50879 3.60484 8.93701 4.14097 10.8633C4.29771 11.4272 4.7855 11.7114 5.2645 11.7188V11.7217C5.2645 11.7217 5.27036 11.7188 5.27329 11.7188C5.27622 11.7188 5.27915 11.7217 5.28208 11.7217V11.7188C5.76109 11.71 6.24888 11.4272 6.40562 10.8633C6.94175 8.93701 8.22349 7.50732 9.75864 6.96387C10.8089 6.59912 10.8089 5.1123 9.75864 4.74756C8.22349 4.20557 6.94029 2.78027 6.40122 0.854004C6.2606 0.353027 5.79917 0.00878906 5.27329 0V0ZM69.725 0.00292969C69.1976 0.0117188 68.7362 0.355957 68.597 0.856934C68.058 2.7832 66.7748 4.2085 65.2396 4.75049C64.1893 5.11523 64.1893 6.60205 65.2396 6.96533C66.7748 7.51025 68.0565 8.93848 68.5926 10.8662C68.7494 11.4302 69.2372 11.7144 69.7162 11.7217V11.7246C69.7162 11.7246 69.722 11.7217 69.725 11.7217C69.7279 11.7217 69.7308 11.7246 69.7337 11.7246V11.7217C70.2127 11.7129 70.7005 11.4302 70.8573 10.8662C71.3934 8.93994 72.6751 7.51025 74.2103 6.96533C75.2606 6.60059 75.2606 5.11377 74.2103 4.75049C72.6737 4.2085 71.3905 2.7832 70.8529 0.856934C70.7137 0.355957 70.2508 0.0117188 69.725 0.00292969ZM5.27329 3.98877C5.72153 4.69336 6.39243 5.40088 6.97544 5.85352C6.08042 6.58594 5.62925 7.19092 5.27329 7.72998C4.91734 7.18945 4.4647 6.58594 3.57114 5.85352C4.15562 5.39941 4.82505 4.69189 5.27329 3.98877ZM71.4286 5.85645C70.5335 6.58887 70.0824 7.19385 69.7264 7.73291C69.3705 7.19238 68.9178 6.58887 68.0243 5.85645C68.6087 5.40234 69.2782 4.69482 69.7264 3.9917C70.1747 4.69629 70.8456 5.40381 71.4286 5.85645ZM32.8124 71.4888C32.8124 73.4165 34.3666 75 36.3251 75H38.6732C40.6332 75 42.1859 73.4165 42.1859 71.4888V70.3125C44.1473 70.3125 45.7015 68.729 45.7015 66.8013V65.625C47.2645 65.625 47.2645 63.2812 45.7015 63.2812V60.9375C47.0565 60.9375 47.2323 59.1782 46.2376 58.7109C46.2948 58.1689 46.5028 57.6006 46.8324 56.9868C50.1385 58.9585 53.2059 60.3486 55.7928 60.9419C57.8041 61.4033 59.5121 61.4077 60.9066 60.7954C62.4007 60.1392 63.2357 58.8721 63.5067 57.3281C64.0179 54.416 62.6322 50.1313 59.5853 44.9165C58.806 43.5366 56.742 44.7393 57.5594 46.0972C60.4789 51.0967 61.5614 54.8335 61.1937 56.9238C61.0516 57.7324 60.6708 58.3447 59.9618 58.6567C59.2528 58.9688 58.0414 59.0552 56.3231 58.6611C54.0306 58.1353 51.2386 56.8828 48.1698 55.0679C48.9798 54.0483 49.9291 52.9541 50.9574 51.6958C53.5252 48.5522 56.2425 44.5342 56.2425 38.54C56.2425 36.4102 55.9042 34.374 55.2948 32.4683C58.0326 29.0244 60.3075 25.6978 62.0213 22.6538C64.7738 17.7612 66.1756 13.4604 65.4154 10.5234C65.0096 8.96045 63.9696 7.80176 62.3876 7.3125C61.6493 7.08398 60.8495 7.00488 59.9867 7.04736C59.1239 7.08691 58.2025 7.25391 57.2196 7.51611C53.2909 8.56641 48.3133 11.2705 42.6605 15.4673C41.4051 16.3975 42.8011 18.2812 44.0565 17.3511C49.5628 13.2627 54.4056 10.6875 57.826 9.77344C59.537 9.31641 60.8685 9.29736 61.6917 9.55225C62.515 9.80713 62.9369 10.3228 63.1478 11.1064C63.6664 13.0415 62.6703 16.7212 59.9779 21.5068C58.516 24.104 56.5868 26.9648 54.2884 29.9458C51.3705 23.9971 45.3617 19.9292 37.4999 19.9277C29.6366 19.9292 23.6292 23.9985 20.7113 29.9487C18.4115 26.9663 16.4793 24.104 15.0174 21.5054C12.325 16.7197 11.329 13.0415 11.8475 11.105C12.057 10.3213 12.4789 9.80566 13.3036 9.55078C14.1268 9.2959 15.4584 9.31494 17.1693 9.77197C20.5897 10.686 25.4325 13.2612 30.9388 17.3496C32.1942 18.2798 33.5917 16.396 32.3348 15.4658C26.682 11.269 21.7044 8.56494 17.7757 7.51465C16.7928 7.25244 15.8714 7.08691 15.0086 7.0459C14.1459 7.00635 13.346 7.08105 12.6078 7.31104C11.0257 7.80029 9.98423 8.95898 9.57993 10.522C8.81968 13.4604 10.2215 17.7598 12.974 22.6523C14.6878 25.6992 16.9642 29.0259 19.7049 32.4712C19.0956 34.377 18.7572 36.4131 18.7572 38.5415C18.7572 44.5356 21.473 48.5552 24.0423 51.6973C25.0692 52.9541 26.0199 54.0469 26.8299 55.0664C23.7596 56.8828 20.9662 58.1353 18.6722 58.6626C16.954 59.0566 15.7411 58.9688 15.0335 58.6582C14.3246 58.3462 13.9437 57.7353 13.8016 56.9253C13.4339 54.835 14.5165 51.0981 17.4359 46.0986C18.2533 44.7407 16.1893 43.5381 15.41 44.918C12.3646 50.1343 10.9774 54.4189 11.4886 57.3296C11.7596 58.8735 12.5946 60.1406 14.0887 60.7969C15.4833 61.4092 17.1913 61.4048 19.2025 60.9434C21.7909 60.3501 24.8612 58.9585 28.1703 56.9854C28.5057 57.5991 28.7064 58.1675 28.7635 58.7095C27.763 59.1738 27.9374 60.939 29.2938 60.939V63.2827C27.7308 63.2827 27.7308 65.6265 29.2938 65.6265V66.8027C29.2938 68.7305 30.848 70.314 32.808 70.314V71.4902L32.8124 71.4888ZM37.4999 12.8936C36.9139 12.8936 36.328 13.2847 36.328 14.0654V16.4092C36.328 17.9722 38.6717 17.9722 38.6717 16.4092V14.0654C38.6717 13.2847 38.0858 12.8936 37.4999 12.8936ZM19.2699 22.1016L20.9266 23.7612C22.0311 24.8657 23.6893 23.2075 22.5834 22.1016L20.9266 20.4448C20.6498 20.168 20.3392 20.064 20.0448 20.0815C19.1644 20.1328 18.4408 21.2739 19.2684 22.103L19.2699 22.1016ZM54.0731 20.4448L52.4134 22.1016C51.3089 23.2061 52.9657 24.8657 54.0702 23.7612L55.7298 22.1016C56.5589 21.2725 55.8324 20.1328 54.952 20.0801C54.659 20.0625 54.35 20.168 54.0731 20.4434V20.4448ZM52.6522 32.0083C51.2445 33.7354 49.7328 35.4888 48.1024 37.2495C44.6717 40.9556 41.058 44.3657 37.4955 47.3525C33.9359 44.3657 30.3251 40.9497 26.8988 37.248C25.2699 35.4888 23.7596 33.7383 22.3534 32.0142C24.7044 26.2559 30.2049 22.2744 37.5028 22.2729C44.7992 22.2744 50.2997 26.2529 52.6522 32.0098V32.0083ZM5.84605 24.6123C5.32163 24.6152 4.86167 24.9639 4.71958 25.4678C4.09556 27.6724 2.59263 29.3218 0.776222 29.9561C-0.257957 30.3281 -0.257957 31.7915 0.776222 32.1621C2.59263 32.7935 4.10288 34.4487 4.72837 36.6533C5.05796 37.7754 6.64878 37.7754 6.97837 36.6533C7.60239 34.4487 9.10532 32.7964 10.9217 32.1621C11.972 31.7974 11.972 30.3105 10.9217 29.9458C9.10532 29.3145 7.60386 27.6694 6.97837 25.4663C6.83628 24.958 6.37339 24.6079 5.84605 24.6108V24.6123ZM69.1302 24.6123C68.6058 24.6152 68.1459 24.9639 68.0038 25.4678C67.3797 27.6724 65.8768 29.3218 64.0604 29.9561C63.0262 30.3281 63.0262 31.7915 64.0604 32.1621C65.8768 32.7935 67.3871 34.4487 68.0126 36.6533C68.3421 37.7754 69.933 37.7754 70.2626 36.6533C70.8866 34.4487 72.3895 32.7964 74.2059 32.1621C75.2562 31.7974 75.2562 30.3105 74.2059 29.9458C72.3895 29.3145 70.888 27.6694 70.2626 25.4663C70.1205 24.958 69.6576 24.6079 69.1302 24.6108V24.6123ZM37.4999 24.6152C34.6214 24.6152 31.8089 25.4927 29.4476 27.1392C28.1205 28.0298 29.5018 30.0088 30.7953 29.0684C32.7626 27.6943 35.1004 26.9575 37.4984 26.9575C39.0936 26.9897 39.0936 24.5815 37.4984 24.6138L37.4999 24.6152ZM5.84605 28.6406C6.56528 29.7524 7.05161 30.2549 8.05503 31.0547C7.1937 31.7534 6.56089 32.335 5.85484 33.4717C5.08286 32.2148 4.23618 31.5117 3.63706 31.0576C4.45444 30.438 5.23081 29.6909 5.84605 28.6406ZM69.1302 28.6406C69.8495 29.7524 70.3358 30.2549 71.3392 31.0547C70.4779 31.7534 69.8451 32.335 69.139 33.4717C68.367 32.2148 67.5204 31.5117 66.9212 31.0576C67.7386 30.438 68.515 29.6909 69.1302 28.6406ZM26.953 30.4717C26.3055 30.4717 25.7811 30.9961 25.7811 31.6436C25.7811 32.291 26.3055 32.8154 26.953 32.8154C27.6004 32.8154 28.1249 32.291 28.1249 31.6436C28.1249 30.9961 27.6004 30.4717 26.953 30.4717ZM53.9105 38.54C53.9105 43.667 51.5975 47.2148 49.1424 50.2178C48.1083 51.4834 47.0594 52.645 46.1512 53.811C43.9657 52.3989 41.6688 50.7334 39.3309 48.8599C42.9125 45.832 46.4867 42.4307 49.8207 38.8301C51.1053 37.4429 52.3255 36.0601 53.4784 34.689C53.7523 35.9238 53.9105 37.207 53.9105 38.5386V38.54ZM21.5272 34.6919C22.6786 36.0615 23.8973 37.4443 25.1805 38.8301C28.5101 42.4277 32.0843 45.832 35.6629 48.8599C33.3294 50.7275 31.034 52.3975 28.8514 53.8081C27.9432 52.6436 26.8959 51.4819 25.8617 50.2163C23.4081 47.2134 21.0936 43.6655 21.0936 38.5386C21.0936 37.207 21.2533 35.9253 21.5257 34.6904L21.5272 34.6919ZM12.8919 37.5029C11.329 37.5029 11.329 39.8438 12.8919 39.8438H15.2357C16.7987 39.8438 16.7987 37.5029 15.2357 37.5029H12.8919ZM59.764 37.5029C58.201 37.5029 58.201 39.8438 59.764 39.8438H62.1107C63.6737 39.8438 63.6737 37.5029 62.1107 37.5029H59.764ZM37.5013 50.3848C39.9916 52.3989 42.4613 54.2051 44.8387 55.7446C44.3348 56.6382 43.9657 57.5757 43.8836 58.5938H31.1219C31.0414 57.5742 30.6766 56.6338 30.1698 55.7402C32.5443 54.2021 35.014 52.3931 37.5013 50.3848ZM56.1209 54.8071C57.35 55.7739 58.7987 53.9312 57.5697 52.9644L55.7269 51.5156C55.4193 51.2739 55.0985 51.208 54.8084 51.2593C53.9398 51.4146 53.3568 52.6333 54.2782 53.3584L56.1209 54.8071ZM19.2831 51.5244L17.4403 52.9761C16.2127 53.9429 17.6615 55.7856 18.889 54.8188L20.7318 53.3672C21.6532 52.6421 21.0687 51.4233 20.2015 51.2681C19.9115 51.2168 19.5907 51.2812 19.2831 51.5244ZM8.20737 56.2603C7.68003 56.2573 7.21714 56.6089 7.07505 57.1157C6.08775 60.7354 3.69419 63.4731 0.779152 64.5293C-0.255028 64.9014 -0.255028 66.3662 0.779152 66.7383C3.69566 67.79 6.09361 70.5234 7.0853 74.1431C7.40464 75.2856 9.02622 75.2856 9.34409 74.1431C10.3314 70.5234 12.725 67.7856 15.64 66.7295C16.6742 66.3574 16.6742 64.8926 15.64 64.5205C12.7235 63.4688 10.3255 60.7354 9.33384 57.1157C9.19321 56.6104 8.73179 56.2617 8.20737 56.2603ZM66.7938 56.2603C66.2665 56.2573 65.8036 56.6089 65.6615 57.1157C64.6742 60.7354 62.2806 63.4731 59.3656 64.5293C58.3314 64.9014 58.3314 66.3662 59.3656 66.7383C62.2821 67.79 64.68 70.5234 65.6717 74.1431C65.9911 75.2856 67.6126 75.2856 67.9305 74.1431C68.9178 70.5234 71.3114 67.7856 74.2264 66.7295C75.2606 66.3574 75.2606 64.8926 74.2264 64.5205C71.3099 63.4688 68.912 60.7354 67.9203 57.1157C67.7796 56.6104 67.3182 56.2617 66.7938 56.2603ZM8.20737 60.5654C9.36314 62.9165 10.702 64.4106 12.6634 65.6279C10.6375 66.9243 9.35874 68.458 8.20737 70.6685C7.16734 68.5474 5.56626 66.646 3.76011 65.6382C5.79331 64.3008 7.06919 62.8301 8.20737 60.5669V60.5654ZM66.7938 60.5654C67.9496 62.9165 69.2884 64.4106 71.2499 65.6279C69.224 66.9243 67.9452 68.458 66.7938 70.6685C65.7538 68.5474 64.1527 66.646 62.3465 65.6382C64.3797 64.3008 65.6556 62.8301 66.7938 60.5669V60.5654ZM31.6434 60.939H43.3622V63.2827H31.6434V60.939ZM31.6434 65.6265H43.3622V66.8027C43.3622 67.4722 42.826 67.9702 42.1932 67.9702H32.8138C32.181 67.9702 31.6449 67.4722 31.6449 66.8027V65.6265H31.6434ZM35.159 70.314H39.8465V71.4902C39.8465 72.1597 39.3104 72.6577 38.6776 72.6577H36.3294C35.6966 72.6577 35.1605 72.1597 35.1605 71.4902V70.314H35.159Z" fill="#065090"/>
</g>
<defs>
<clipPath id="clip0_334_3490">
<rect width="75" height="75" fill="white"/>
</clipPath>
</defs>
</svg>
