<svg width="60" height="60" viewBox="0 0 60 60" fill="none" xmlns="http://www.w3.org/2000/svg">
<path d="M58.0646 48.4948V39.6774C58.0646 38.4169 57.2529 37.3524 56.1291 36.952V35.8065C56.1291 34.2024 54.8287 32.9032 53.2259 32.9032H42.4029C42.0025 31.7794 40.938 30.9677 39.6775 30.9677V18.8577C39.6775 16.4286 38.3674 14.1738 36.2565 12.9726L17.7061 2.40363C16.8642 0.97379 15.3255 0 13.5484 0C10.892 0 8.73151 2.15444 8.71216 4.80605H8.70974L7.76982 32.9976C5.55127 33.4367 3.87103 35.3964 3.87103 37.7419C3.87103 38.7823 4.20732 39.7403 4.76861 40.5302L2.01538 43.7419C0.71619 45.2577 6.10352e-05 47.1931 6.10352e-05 49.1903C6.10352e-05 51.427 0.871029 53.5294 2.45208 55.1105L5.35651 58.0149C6.62788 59.2863 8.35046 60 10.148 60H19.3549C19.8896 60 20.3226 59.5669 20.3226 59.0323C20.3226 58.7649 20.2138 58.523 20.0396 58.3476C19.8642 58.1722 19.6222 58.0645 19.3549 58.0645H18.3872V52.7613L15.063 50.1012C14.0541 49.2944 13.4202 48.1427 13.2763 46.8581L12.5831 40.6125C13.1819 39.8069 13.5484 38.8198 13.5484 37.7419C13.5484 36.2419 12.848 34.9161 11.7726 34.027L16.2714 8.83306C16.442 8.71573 16.5944 8.57661 16.7493 8.43992L26.6783 18.369C26.3372 18.9448 26.1291 19.6065 26.1291 20.3226C26.1291 22.1202 27.3678 23.6238 29.0323 24.0556V30.9677H28.6839C27.3049 30.9677 26.1073 31.9488 25.8364 33.3012L23.2452 46.2617L23.2319 48.4887C22.0186 49.725 21.2734 51.421 21.2904 53.2899C21.3255 57.023 24.4331 60 28.1662 60H53.1243C56.8549 60 59.9613 57.0266 60.0001 53.296C60.0182 51.427 59.2755 49.731 58.0646 48.4948V48.4948ZM8.70974 34.8387C10.3101 34.8387 11.613 36.1415 11.613 37.7419C11.613 39.3423 10.3101 40.6452 8.70974 40.6452C7.10934 40.6452 5.80651 39.3423 5.80651 37.7419C5.80651 36.1415 7.10934 34.8387 8.70974 34.8387ZM13.8545 51.6133L16.4517 53.6903V54.1935H15.4839C14.9493 54.1935 14.5162 54.6266 14.5162 55.1613C14.5162 55.4286 14.6251 55.6706 14.7993 55.846C14.9747 56.0214 15.2166 56.129 15.4839 56.129H16.4517V58.0645H10.148C8.86337 58.0645 7.63313 57.554 6.72466 56.6468L3.82022 53.7423C2.60571 52.5266 1.93554 50.9093 1.93554 49.1903C1.93554 47.654 2.48595 46.1673 3.48635 45.0012L6.18635 41.8512C6.92304 42.3048 7.78313 42.5806 8.70974 42.5806C9.46216 42.5806 10.1638 42.3931 10.8001 42.0859L11.3541 47.071C11.5525 48.8698 12.4416 50.4835 13.8545 51.6133ZM9.97506 33.0919C9.88313 33.0665 9.79966 33.0278 9.70772 33.0085L10.5218 8.58145C11.3529 9.25645 12.3968 9.67742 13.5484 9.67742C13.7601 9.67742 13.9622 9.64113 14.1666 9.61452L9.97506 33.0919ZM13.5484 7.74194C11.948 7.74194 10.6452 6.43911 10.6452 4.83871C10.6452 3.23831 11.948 1.93548 13.5484 1.93548C15.1489 1.93548 16.4517 3.23831 16.4517 4.83871C16.4517 6.43911 15.1489 7.74194 13.5484 7.74194ZM42.5807 34.8387H53.2259C53.7593 34.8387 54.1936 35.2718 54.1936 35.8065V36.7742H42.5807V34.8387ZM42.5807 38.7097H55.1613C55.6948 38.7097 56.1291 39.1427 56.1291 39.6774V47.1145C55.2472 46.6948 54.2662 46.4516 53.2259 46.4516H42.5807V38.7097ZM17.9214 6.87581C18.1888 6.30363 18.346 5.67581 18.3702 5.00927L35.2984 14.654C36.8057 15.5129 37.742 17.1242 37.742 18.8577V30.9677H30.9678V24.0556C32.6323 23.6238 33.871 22.1202 33.871 20.3226C33.871 18.1875 32.1351 16.4516 30.0001 16.4516C29.2839 16.4516 28.6222 16.6597 28.0464 16.9996L17.9214 6.87581ZM28.0646 20.3226C28.0646 19.2544 28.9331 18.3871 30.0001 18.3871C31.067 18.3871 31.9355 19.2544 31.9355 20.3226C31.9355 21.3907 31.067 22.2581 30.0001 22.2581C28.9331 22.2581 28.0646 21.3895 28.0646 20.3226ZM25.1614 46.5472L27.7343 33.681C27.8251 33.2298 28.2243 32.9032 28.6839 32.9032H39.6775C40.2109 32.9032 40.6452 33.3363 40.6452 33.871V46.4516H28.0646C27.0243 46.4516 26.0432 46.6948 25.1614 47.1145V46.5472ZM53.2259 58.0645H28.0646C25.396 58.0645 23.2259 55.8931 23.2259 53.2258C23.2259 50.5585 25.396 48.3871 28.0646 48.3871H53.2259C55.8944 48.3871 58.0646 50.5573 58.0646 53.2258C58.0646 55.8944 55.8944 58.0645 53.2259 58.0645Z" fill="#065090"/>
<path d="M52.2582 49.3545C51.0969 49.3545 50.0651 49.8795 49.355 50.6924C48.6449 49.8795 47.6131 49.3545 46.4518 49.3545C45.2905 49.3545 44.2586 49.8795 43.5485 50.6924C42.8385 49.8795 41.8066 49.3545 40.6453 49.3545C39.484 49.3545 38.4522 49.8795 37.7421 50.6924C37.032 49.8795 36.0001 49.3545 34.8389 49.3545C33.6776 49.3545 32.6457 49.8795 31.9356 50.6924C31.2256 49.8795 30.1937 49.3545 29.0324 49.3545C26.8973 49.3545 25.1614 51.0904 25.1614 53.2255C25.1614 55.3605 26.8973 57.0964 29.0324 57.0964C30.1937 57.0964 31.2256 56.5714 31.9356 55.7585C32.6457 56.5714 33.6776 57.0964 34.8389 57.0964C36.0001 57.0964 37.032 56.5714 37.7421 55.7585C38.4522 56.5714 39.484 57.0964 40.6453 57.0964C41.8066 57.0964 42.8385 56.5714 43.5485 55.7585C44.2586 56.5714 45.2905 57.0964 46.4518 57.0964C47.6131 57.0964 48.6449 56.5714 49.355 55.7585C50.0651 56.5714 51.0969 57.0964 52.2582 57.0964C54.3933 57.0964 56.1292 55.3605 56.1292 53.2255C56.1292 51.0904 54.3933 49.3545 52.2582 49.3545ZM29.0324 55.1609C27.9655 55.1609 27.0969 54.2924 27.0969 53.2255C27.0969 52.1585 27.9655 51.29 29.0324 51.29C30.0993 51.29 30.9679 52.1585 30.9679 53.2255C30.9679 54.2924 30.0993 55.1609 29.0324 55.1609ZM34.8389 55.1609C33.7719 55.1609 32.9034 54.2924 32.9034 53.2255C32.9034 52.1585 33.7719 51.29 34.8389 51.29C35.9058 51.29 36.7743 52.1585 36.7743 53.2255C36.7743 54.2924 35.9058 55.1609 34.8389 55.1609ZM40.6453 55.1609C39.5784 55.1609 38.7098 54.2924 38.7098 53.2255C38.7098 52.1585 39.5784 51.29 40.6453 51.29C41.7122 51.29 42.5808 52.1585 42.5808 53.2255C42.5808 54.2924 41.7122 55.1609 40.6453 55.1609ZM46.4518 55.1609C45.3848 55.1609 44.5163 54.2924 44.5163 53.2255C44.5163 52.1585 45.3848 51.29 46.4518 51.29C47.5187 51.29 48.3872 52.1585 48.3872 53.2255C48.3872 54.2924 47.5187 55.1609 46.4518 55.1609ZM52.2582 55.1609C51.1913 55.1609 50.3227 54.2924 50.3227 53.2255C50.3227 52.1585 51.1913 51.29 52.2582 51.29C53.3251 51.29 54.1937 52.1585 54.1937 53.2255C54.1937 54.2924 53.3251 55.1609 52.2582 55.1609Z" fill="#065090"/>
<path d="M39.6774 34.8389H29.2064L28.0827 40.4554L28.0645 42.5808H39.6774V34.8389ZM37.7419 40.6453H30.0194L30.7935 36.7744H37.7419V40.6453Z" fill="#065090"/>
<path d="M53.2258 40.6455H51.2903C50.7558 40.6455 50.3226 41.0788 50.3226 41.6132C50.3226 42.1477 50.7558 42.581 51.2903 42.581H53.2258C53.7603 42.581 54.1935 42.1477 54.1935 41.6132C54.1935 41.0788 53.7603 40.6455 53.2258 40.6455Z" fill="#065090"/>
<path d="M47.4194 40.6455H45.4839C44.9494 40.6455 44.5162 41.0788 44.5162 41.6132C44.5162 42.1477 44.9494 42.581 45.4839 42.581H47.4194C47.9539 42.581 48.3871 42.1477 48.3871 41.6132C48.3871 41.0788 47.9539 40.6455 47.4194 40.6455Z" fill="#065090"/>
</svg>
