<svg width="15" height="15" viewBox="0 0 15 15" fill="none" xmlns="http://www.w3.org/2000/svg">
<path d="M11.1939 7.46756H2.52904V6.28212H11.1935C11.7192 6.28212 12.1964 5.95156 12.3817 5.46011L13.789 1.72328C13.8554 1.54716 13.7795 1.4083 13.7439 1.35681C13.7084 1.30533 13.6051 1.18543 13.4171 1.18543H0.592717C0.265537 1.18543 0 0.919897 0 0.592717C0 0.265537 0.265537 0 0.592717 0H13.3924C13.8306 0 14.256 0.170025 14.5588 0.486367C14.9863 0.932768 15.1109 1.57663 14.8985 2.14089L13.4913 5.87772C13.1333 6.82878 12.21 7.46756 11.1935 7.46756H11.1939Z" fill="black"/>
<path d="M12.2107 11.4652H4.49687C3.07976 11.4652 1.93091 10.3164 1.93091 8.89928V0.592773H3.11634V8.89928C3.11634 9.66168 3.73446 10.2798 4.49687 10.2798H12.2107C12.5378 10.2798 12.8034 10.5453 12.8034 10.8725C12.8034 11.2 12.5378 11.4652 12.2107 11.4652Z" fill="black"/>
<path d="M10.6184 14.4472C11.2395 14.4472 11.7429 13.9437 11.7429 13.3227C11.7429 12.7017 11.2395 12.1982 10.6184 12.1982C9.9974 12.1982 9.49396 12.7017 9.49396 13.3227C9.49396 13.9437 9.9974 14.4472 10.6184 14.4472Z" fill="black"/>
<path d="M4.70855 14.4472C5.32957 14.4472 5.83301 13.9437 5.83301 13.3227C5.83301 12.7017 5.32957 12.1982 4.70855 12.1982C4.08752 12.1982 3.58408 12.7017 3.58408 13.3227C3.58408 13.9437 4.08752 14.4472 4.70855 14.4472Z" fill="black"/>
</svg>
