<svg width="25" height="25" viewBox="0 0 25 25" fill="none" xmlns="http://www.w3.org/2000/svg">
<path fill-rule="evenodd" clip-rule="evenodd" d="M20 1.5H5C3.067 1.5 1.5 3.067 1.5 5V20C1.5 21.933 3.067 23.5 5 23.5H20C21.933 23.5 23.5 21.933 23.5 20V5C23.5 3.067 21.933 1.5 20 1.5ZM5 0C2.23858 0 0 2.23858 0 5V20C0 22.7614 2.23858 25 5 25H20C22.7614 25 25 22.7614 25 20V5C25 2.23858 22.7614 0 20 0H5Z" fill="white"/>
<path fill-rule="evenodd" clip-rule="evenodd" d="M5.69173 19.3496H8.56282V10.0801H5.69173V19.3496ZM7.16861 5.44531C8.09627 5.44531 8.84929 6.19865 8.84929 7.12679C8.84929 8.05525 8.09627 8.80859 7.16861 8.80859C6.23743 8.80859 5.48633 8.05525 5.48633 7.12679C5.48633 6.19865 6.23743 5.44531 7.16861 5.44531ZM15.8761 9.91602C18.7829 9.91602 19.3086 11.7616 19.3086 14.2499V19.3496H16.4785V14.8238C16.4785 13.7526 16.4308 12.3742 14.9571 12.3742C13.4631 12.3742 13.1562 13.5419 13.1562 14.7472V19.3496H10.3672V10.0801H13.1562V11.341H13.159C13.5417 10.6146 14.4793 9.91602 15.8761 9.91602Z" fill="white"/>
</svg>
