<svg width="21" height="15" viewBox="0 0 21 15" fill="none" xmlns="http://www.w3.org/2000/svg">
<path d="M18.37 15H2.61159C1.17151 15 0 13.8586 0 12.4556V5.76613C0 4.36308 1.17151 3.22168 2.61159 3.22168H4.61595C4.9566 3.22168 5.23306 3.49814 5.23306 3.83879C5.23306 4.17943 4.9566 4.45589 4.61595 4.45589H2.61159C1.85231 4.45589 1.23421 5.04387 1.23421 5.76613V12.4556C1.23421 13.1783 1.85231 13.7658 2.61159 13.7658H18.37C19.1293 13.7658 19.7474 13.1778 19.7474 12.4556V5.76613C19.7474 5.04338 19.1293 4.45589 18.37 4.45589H16.8593C16.5187 4.45589 16.2422 4.17943 16.2422 3.83879C16.2422 3.49814 16.5187 3.22168 16.8593 3.22168H18.37C19.8101 3.22168 20.9816 4.36308 20.9816 5.76613V12.4556C20.9816 13.8586 19.8101 15 18.37 15Z" fill="black"/>
<path d="M10.4906 10.241C10.15 10.241 9.87354 9.96454 9.87354 9.6239V0.617106C9.87354 0.276464 10.15 0 10.4906 0C10.8313 0 11.1077 0.276464 11.1077 0.617106V9.6239C11.1077 9.96454 10.8313 10.241 10.4906 10.241Z" fill="black"/>
<path d="M10.4906 10.6078C10.3321 10.6078 10.1741 10.5486 10.0507 10.4296L6.79635 7.31249C6.55001 7.07651 6.54161 6.68601 6.77759 6.44015C7.01358 6.1938 7.40408 6.18541 7.64994 6.42139L10.4906 9.14209L13.3313 6.42139C13.5776 6.18541 13.9681 6.1938 14.2036 6.44015C14.4391 6.6865 14.4307 7.07701 14.1848 7.31249L10.929 10.4311C10.8061 10.5491 10.6486 10.6078 10.4906 10.6078ZM10.0754 9.53901C10.0754 9.53901 10.0749 9.53951 10.0744 9.54L10.0754 9.53901ZM10.9028 9.53704L10.9053 9.53951C10.9053 9.53951 10.9033 9.53803 10.9028 9.53704Z" fill="black"/>
</svg>
