<svg width="75" height="75" viewBox="0 0 75 75" fill="none" xmlns="http://www.w3.org/2000/svg">
<g clip-path="url(#clip0_334_3494)">
<path d="M66.065 53.6038C71.5766 50.8473 75 45.3085 75 39.1467V35.4073C75 34.559 74.312 33.871 73.4637 33.871H52.3594C51.6336 33.871 50.9879 34.3352 50.7581 35.0247L48.6064 41.4798C48.4612 41.9199 48.3856 42.378 48.3856 42.8422C48.3856 44.4844 49.2974 45.9632 50.7671 46.6966L50.8049 49.0963C50.8049 50.5222 51.3599 51.8634 52.3684 52.872C53.2576 53.7611 54.4083 54.2722 55.6437 54.3871V59.5857C54.496 60.4143 53.4602 61.37 52.556 62.433C50.2636 59.4723 46.9672 57.5202 43.2445 56.9441L42.744 55.441C45.9693 54.7031 48.3856 51.8165 48.3856 48.3705V35.7838C48.3856 34.7268 47.5282 33.871 46.4728 33.871H44.7566V29.6008C44.7566 28.1401 45.437 26.752 46.624 25.7918C50.0504 23.0202 52.0146 18.9103 52.0146 14.5161C52.0146 10.3911 50.2515 6.44607 47.1729 3.69405C44.1018 0.94506 39.9708 -0.364415 35.8337 0.09375C29.4647 0.804435 24.1361 5.90171 23.1623 12.2147C22.3624 17.3937 24.2873 22.4501 28.3125 25.7419C29.5373 26.7445 30.2419 28.1522 30.2419 29.6038V33.871H28.5257C27.4688 33.871 26.6129 34.7283 26.6129 35.7838V48.3705C26.6129 51.8165 29.0292 54.7031 32.2545 55.441L31.7525 56.9456C28.0721 57.5232 24.7288 59.5131 22.4456 62.439C21.5413 61.3745 20.504 60.4158 19.3533 59.5857V54.3871C20.5887 54.2722 21.7409 53.7611 22.6285 52.872C23.6386 51.8634 24.1936 50.5237 24.1936 49.0963V46.7147L24.2314 46.6966C25.7011 45.9632 26.6129 44.4844 26.6129 42.8422C26.6129 42.378 26.5373 41.9199 26.3921 41.4783L24.0847 34.5544C23.9486 34.1462 23.566 33.871 23.1351 33.871H20.5645V13.0207L14.9304 1.75101C14.3906 0.671371 13.3049 0 12.0968 0C10.8886 0 9.80292 0.671371 9.2631 1.75101L3.62903 13.0207V33.871H2.05494C0.919355 33.871 0 34.7918 0 35.9259V39.1467C0 45.3085 3.42339 50.8473 8.93498 53.6038L9.67742 53.9743V55.9521C3.93599 57.8075 0 63.1421 0 69.251V73.1507C0 74.1714 0.828629 75 1.84929 75H73.2747C74.2273 75 75 74.2273 75 73.2747V69.2495C75 63.1406 71.064 57.8075 65.3226 55.9506V53.9728L66.065 53.6038ZM65.3226 36.2903H72.5807V39.1467C72.5807 44.253 69.8014 48.8392 65.3226 51.2389V47.6779L66.6789 46.3216C67.3639 45.6381 67.7419 44.7248 67.7419 43.7555V43.5484C67.7419 41.9713 66.7303 40.6255 65.3226 40.1265V36.2903ZM42.7606 59.3377C42.8271 59.3468 42.8937 59.3574 42.9602 59.3679L41.6356 65.3271L39.2087 62.9002L42.7606 59.3377ZM37.5 61.1885L34.0449 57.7213L34.7435 55.627H40.2566L40.9551 57.7213L37.5 61.1885ZM29.8443 23.87C26.4889 21.1255 24.8861 16.9068 25.5514 12.5837C26.3619 7.33216 30.7984 3.08921 36.0998 2.49647C39.6018 2.10938 42.9617 3.17238 45.561 5.49647C48.1255 7.79183 49.5968 11.0776 49.5968 14.5161C49.5968 18.1769 47.9592 21.6018 45.1058 23.9108C43.5 25.2082 42.5292 27.0514 42.372 29.0323H40.0025L40.7283 18.1452H42.3387C44.3392 18.1452 45.9677 16.5166 45.9677 14.5161C45.9677 12.5156 44.3392 10.8871 42.3387 10.8871H42.183C40.2792 10.8871 38.6885 12.375 38.5615 14.2757L38.4647 15.7258H36.5353L36.4385 14.2742C36.3115 12.375 34.7208 10.8871 32.817 10.8871H32.6613C30.6608 10.8871 29.0323 12.5156 29.0323 14.5161C29.0323 16.5166 30.6608 18.1452 32.6613 18.1452H34.2717L34.9975 29.0323H32.628C32.4647 27.062 31.4773 25.2036 29.8443 23.87ZM42.3387 31.4516V33.871H32.6613V31.4516H42.3387ZM36.6956 18.1452H38.3029L37.5771 29.0323H37.4214L36.6956 18.1452ZM40.8901 15.7258L40.9748 14.436C41.0171 13.8024 41.5494 13.3065 42.183 13.3065H42.3387C43.0055 13.3065 43.5484 13.8493 43.5484 14.5161C43.5484 15.183 43.0055 15.7258 42.3387 15.7258H40.8901ZM34.1099 15.7258H32.6613C31.9945 15.7258 31.4516 15.183 31.4516 14.5161C31.4516 13.8493 31.9945 13.3065 32.6613 13.3065H32.817C33.4506 13.3065 33.9829 13.8024 34.0252 14.436L34.1099 15.7258ZM29.0323 48.3705V36.2903H45.9677V48.3705C45.9677 51.0393 43.7979 53.2092 41.129 53.2092H33.871C31.2021 53.2092 29.0323 51.0378 29.0323 48.3705ZM32.2409 59.3392L35.7913 62.9017L33.3644 65.3286L32.0413 59.371C32.1079 59.3604 32.1744 59.3498 32.2409 59.3392ZM22.1114 36.2903L24.0968 42.2434C24.1603 42.437 24.1936 42.6381 24.1936 42.8422C24.1936 43.5635 23.7928 44.2107 23.1487 44.5328L21.7742 45.2208V49.0978C21.7742 49.878 21.4703 50.6099 20.9183 51.1633C20.3679 51.7137 19.6346 52.0161 18.8558 52.0161H15.7258C15.0575 52.0161 14.5161 52.5575 14.5161 53.2258C14.5161 53.8942 15.0575 54.4355 15.7258 54.4355H16.9355V58.1114C16.5711 57.9284 16.1991 57.7591 15.8196 57.6003L12.0968 56.0474V46.6769L10.0328 44.6129C9.80595 44.3861 9.67742 44.0776 9.67742 43.7555V43.5484C9.67742 42.88 10.2188 42.3387 10.8871 42.3387H12.0968V36.2903H22.1114ZM18.4808 61.9476L17.6462 63.6139L13.1477 60.9148L12.6442 58.8977L14.8881 59.8337C16.2006 60.378 17.4042 61.0948 18.4808 61.9476ZM18.1452 33.871H13.3065V14.5161H18.1452V33.871ZM11.4284 2.83216C11.6825 2.32258 12.5111 2.32258 12.7651 2.83216L17.3982 12.0968H6.79536L11.4284 2.83216ZM6.04839 14.5161H10.8871V33.871H6.04839V14.5161ZM2.41935 39.1467V36.4808C2.41935 36.375 2.50403 36.2903 2.60988 36.2903H9.67742V40.1265C8.26966 40.6255 7.25806 41.9713 7.25806 43.5484V43.7555C7.25806 44.7188 7.64062 45.6411 8.32107 46.3216L9.67742 47.6779V51.2389C5.19859 48.8377 2.41935 44.253 2.41935 39.1467ZM9.67742 72.5807V66.5323C9.67742 65.8639 9.13609 65.3226 8.46774 65.3226C7.7994 65.3226 7.25806 65.8639 7.25806 66.5323V72.5807H2.41935V69.2495C2.41935 64.3397 5.49194 60.0348 10.0237 58.3881L10.7661 61.3594C10.9446 62.0716 11.3982 62.684 12.0272 63.062L17.8291 66.5428C18.2676 66.806 18.8362 66.6396 19.0645 66.183L20.315 63.6804C22.5015 66.1104 23.8775 69.2162 24.1437 72.5791H9.67742V72.5807ZM26.5721 72.5807C26.3725 69.6562 25.4531 66.8921 23.9546 64.4955C25.376 62.4405 27.3901 60.874 29.7006 59.9955L31.376 67.5363C31.6285 68.6704 33.0333 69.0801 33.8558 68.2591L37.5 64.6149L41.1442 68.2591C41.9667 69.0817 43.3715 68.6719 43.624 67.5363L45.3009 59.9864C47.6159 60.8543 49.6104 62.4103 51.0454 64.4939C49.5484 66.8921 48.626 69.6578 48.4279 72.5822H26.5721V72.5807ZM72.5807 69.2495V72.5807H67.7419V66.5323C67.7419 65.8639 67.2006 65.3226 66.5323 65.3226C65.8639 65.3226 65.3226 65.8639 65.3226 66.5323V72.5807H50.8548C51.2994 66.9526 54.8347 62.0307 60.1119 59.8322L64.1991 58.1295C69.1542 59.5464 72.5807 64.063 72.5807 69.2495ZM64.9688 44.6114L62.9032 46.6769V56.0474L59.1804 57.5988C58.8009 57.7576 58.4289 57.9284 58.0645 58.1099V54.4355H59.2742C59.9425 54.4355 60.4839 53.8942 60.4839 53.2258C60.4839 52.5575 59.9425 52.0161 59.2742 52.0161H56.1442C55.3654 52.0161 54.6336 51.7122 54.0817 51.1603C53.5373 50.6174 53.2258 49.8659 53.2258 49.0963V45.2208L51.8513 44.5312C51.2072 44.2107 50.8065 43.5635 50.8065 42.8422C50.8065 42.6381 50.8397 42.437 50.9032 42.245L52.8886 36.2903H62.9032V42.3387H64.1129C64.7812 42.3387 65.3226 42.88 65.3226 43.5484V43.7571C65.3226 44.0776 65.1956 44.3846 64.9688 44.6114Z" fill="#065090"/>
<path d="M40.8735 44.7581H40.7676C40.3427 44.7581 39.9693 45.0015 39.7545 45.3674C39.5398 45.7334 39.1542 45.9677 38.7097 45.9677H35.0398C34.3942 45.9677 33.871 46.4909 33.871 47.1366V47.2182C33.871 47.8639 34.3942 48.3871 35.0398 48.3871H38.7097C40.0963 48.3871 41.3029 47.6053 41.9138 46.4607C42.3251 45.6895 41.7475 44.7581 40.8735 44.7581Z" fill="#065090"/>
<path d="M61.6935 24.1935C59.693 24.1935 58.0645 25.8221 58.0645 27.8226C58.0645 29.8231 59.693 31.4516 61.6935 31.4516C63.6941 31.4516 65.3226 29.8231 65.3226 27.8226C65.3226 25.8221 63.6941 24.1935 61.6935 24.1935ZM61.6935 29.0323C61.0267 29.0323 60.4839 28.4894 60.4839 27.8226C60.4839 27.1557 61.0267 26.6129 61.6935 26.6129C62.3604 26.6129 62.9032 27.1557 62.9032 27.8226C62.9032 28.4894 62.3604 29.0323 61.6935 29.0323Z" fill="#065090"/>
<path d="M68.9516 9.251C68.9804 11.4042 68.0292 13.4168 66.3508 14.7581L62.9032 17.5161V20.5645C62.9032 20.8987 62.7671 21.2011 62.5494 21.4204C62.3302 21.6381 62.0277 21.7742 61.6936 21.7742C61.0252 21.7742 60.4839 21.2329 60.4839 20.5645V17.2137C60.4839 16.6709 60.7304 16.1583 61.1537 15.818L64.8402 12.8694C65.9229 12.003 66.5413 10.7087 66.5323 9.32055C66.5171 6.82408 64.4184 4.8387 61.9219 4.8387H61.3639C59.1169 4.8387 57.254 6.48235 56.9123 8.63255C56.9093 8.65069 56.9063 8.66884 56.9032 8.68547C56.8004 9.24948 56.306 9.67741 55.7132 9.67741C55.0449 9.67741 54.5035 9.13456 54.5035 8.46773C54.5035 8.40876 54.5081 8.34979 54.5156 8.29233C54.5202 8.26964 54.5232 8.24696 54.5277 8.22428C55.063 4.93245 57.9209 2.41934 61.3639 2.41934H61.8947C65.7051 2.41934 68.8987 5.44051 68.9516 9.251Z" fill="#065090"/>
</g>
<defs>
<clipPath id="clip0_334_3494">
<rect width="75" height="75" fill="white"/>
</clipPath>
</defs>
</svg>
