<svg width="15" height="15" viewBox="0 0 15 15" fill="none" xmlns="http://www.w3.org/2000/svg">
<g clip-path="url(#clip0_501_190)">
<path d="M11.5191 10.7409C12.4591 9.62916 13.035 8.20005 13.0605 6.63948C13.1193 3.06953 10.1897 0.0483988 6.61973 0.00059401C2.9482 -0.0484688 -0.0484077 2.94813 0.000655046 6.61967C0.0484598 10.1899 3.06959 13.1192 6.63985 13.0604C8.20011 13.0346 9.62954 12.4588 10.7413 11.519L14.0612 14.8389C14.276 15.0537 14.6245 15.0537 14.8393 14.8389C15.0541 14.6241 15.0541 14.2757 14.8393 14.0609L11.5194 10.7409H11.5191ZM10.7379 9.95971C10.5054 10.2446 10.2447 10.5054 9.95977 10.7378C9.02412 11.502 7.82994 11.9606 6.53072 11.9606C3.53663 11.9606 1.10079 9.52475 1.10079 6.53066C1.10079 3.53657 3.53663 1.10073 6.53072 1.10073C9.52481 1.10073 11.9606 3.53657 11.9606 6.53066C11.9606 7.82988 11.5021 9.02406 10.7379 9.95971Z" fill="black"/>
</g>
<defs>
<clipPath id="clip0_501_190">
<rect width="15" height="15" fill="white"/>
</clipPath>
</defs>
</svg>
