<svg width="52" height="60" viewBox="0 0 52 60" fill="none" xmlns="http://www.w3.org/2000/svg">
<path d="M6.38066 60.0003C3.59595 60.0003 1.33112 57.7355 1.33112 54.9508C1.33112 53.5163 2.05678 51.7822 3.54901 49.6509C4.5996 48.1491 5.63454 47.0395 5.67786 46.9926L6.38186 46.2393L7.08586 46.9926C7.12918 47.0395 8.16292 48.1491 9.2147 49.6509C10.7069 51.7822 11.4326 53.5151 11.4326 54.9508C11.4326 57.7355 9.16777 60.0003 6.38306 60.0003H6.38066ZM5.70915 49.9494C4.79335 51.1516 3.25658 53.4008 3.25658 54.9508C3.25658 56.6729 4.65857 58.0749 6.38066 58.0749C8.10275 58.0749 9.50473 56.6729 9.50473 54.9508C9.50473 53.4152 7.96676 51.1588 7.04976 49.9506L6.37945 49.0685L5.70795 49.9494H5.70915Z" fill="#2E8AC1"/>
<path d="M6.10352e-05 42.2284V30.0739C6.10352e-05 24.3444 4.6621 19.6824 10.3916 19.6824H16.8443L17.097 19.3852C18.7072 17.4862 20.948 16.2202 23.4041 15.8206L24.1117 15.7051V11.1755L23.5064 10.9973C22.6797 10.7543 21.9071 10.3126 21.2729 9.72052L20.9203 9.39078L20.457 9.52918C20.0959 9.63748 19.7253 9.74098 19.357 9.83966C16.1403 10.6941 12.6359 11.2236 11.234 11.2236C8.15923 11.2236 5.65733 8.72168 5.65733 5.64695C5.65733 2.57222 8.15683 0.0703125 11.2316 0.0703125C12.6347 0.0703125 16.1391 0.599816 19.3546 1.45424C19.7337 1.55533 20.1044 1.65882 20.4558 1.76352L20.9179 1.90191L21.2705 1.57218C22.3078 0.603427 23.6581 0.0703125 25.0709 0.0703125C26.4837 0.0703125 27.8339 0.603427 28.8713 1.57218L29.2239 1.90191L29.686 1.76352C30.0338 1.66003 30.4044 1.55533 30.7871 1.45424C34.0038 0.599816 37.5082 0.0703125 38.9102 0.0703125C41.9849 0.0703125 44.4868 2.57222 44.4868 5.64695C44.4868 8.72168 41.9849 11.2236 38.9102 11.2236C37.507 11.2236 34.0026 10.6941 30.7871 9.83966C30.4188 9.74218 30.0482 9.63748 29.6872 9.52918L29.2239 9.39078L28.8713 9.72052C28.2371 10.3126 27.4645 10.7543 26.6377 10.9973L26.0324 11.1755V15.7051L26.74 15.8206C29.1962 16.2202 31.4369 17.4862 33.0471 19.3852L33.2998 19.6824H41.1822L41.3098 18.9941C41.6672 17.0758 43.3424 15.6835 45.2943 15.6835H49.5267V11.8927H51.4522V41.0154H49.5267V37.2246H45.2943C43.1775 37.2246 41.4024 35.5711 41.252 33.4615L41.1967 32.6793H33.2336L32.9821 32.9706C30.9893 35.2739 28.1059 36.594 25.0709 36.594C22.0358 36.594 19.1525 35.2739 17.1596 32.9706L16.9081 32.6793H12.9958V42.2284H6.10352e-05ZM10.3916 21.6079C5.72352 21.6079 1.92553 25.4059 1.92553 30.0739V40.303H11.0715V30.7539H17.8841L18.1729 31.1498C19.7758 33.3532 22.3547 34.6686 25.0733 34.6686C27.7918 34.6686 30.3707 33.3532 31.9737 31.1498L32.2625 30.7539H41.2436V21.6079H32.3154L32.0278 21.2035C30.4273 18.9531 27.8279 17.6101 25.0745 17.6101C22.3211 17.6101 19.7217 18.9531 18.1211 21.2035L17.8335 21.6079H10.3928H10.3916ZM45.2979 17.6101C44.1246 17.6101 43.1691 18.5644 43.1691 19.739V33.1715C43.1691 34.3449 44.1234 35.3004 45.2979 35.3004H49.5303V17.6101H45.2979ZM38.9138 1.99578C38.0028 1.99578 35.2145 2.34718 32.1229 3.10172C31.7703 3.18716 31.4261 3.27622 31.1 3.36407L30.313 3.57707L30.4995 4.37012C30.5982 4.79132 30.6487 5.22094 30.6487 5.64695C30.6487 6.07296 30.5982 6.50258 30.4995 6.92378L30.313 7.71683L31.1 7.92983C31.4273 8.01768 31.7715 8.10674 32.1241 8.19218C35.2157 8.94672 38.0028 9.29812 38.915 9.29812C40.9283 9.29812 42.5661 7.66027 42.5661 5.64695C42.5661 3.63363 40.9283 1.99578 38.915 1.99578H38.9138ZM25.0721 1.99578C23.0587 1.99578 21.4209 3.63363 21.4209 5.64695C21.4209 7.66027 23.0587 9.29812 25.0721 9.29812C27.0854 9.29812 28.7232 7.66027 28.7232 5.64695C28.7232 3.63363 27.0854 1.99578 25.0721 1.99578ZM11.2304 1.99578C9.21704 1.99578 7.57919 3.63363 7.57919 5.64695C7.57919 7.66027 9.21704 9.29812 11.2304 9.29812C12.1774 9.29812 15.0644 8.91423 18.0212 8.19218C18.369 8.10794 18.7132 8.01889 19.0441 7.92983L19.8312 7.71683L19.6447 6.92378C19.546 6.50258 19.4954 6.07296 19.4954 5.64695C19.4954 5.22094 19.546 4.79132 19.6447 4.37012L19.8312 3.57707L19.0441 3.36407C18.7156 3.27501 18.3714 3.18716 18.0212 3.10172C15.0644 2.38087 12.1774 1.99578 11.2304 1.99578Z" fill="#2E8AC1"/>
<path d="M25.0733 2.04581C27.0589 2.04581 28.6739 3.6608 28.6739 5.64644C28.6739 7.63207 27.0589 9.24706 25.0733 9.24706C23.0876 9.24706 21.4726 7.63207 21.4726 5.64644C21.4726 3.6608 23.0876 2.04581 25.0733 2.04581ZM25.0733 0C21.9552 0 19.4268 2.52838 19.4268 5.64644C19.4268 8.76449 21.9552 11.2929 25.0733 11.2929C28.1913 11.2929 30.7197 8.76449 30.7197 5.64644C30.7197 2.52838 28.1913 0 25.0733 0Z" fill="#2E8AC1"/>
</svg>
