<svg width="75" height="67" viewBox="0 0 75 67" fill="none" xmlns="http://www.w3.org/2000/svg">
<g clip-path="url(#clip0_509_5488)">
<path d="M31.366 66.3554C30.1348 66.3554 28.9753 65.8758 28.1038 65.0043C26.3067 63.2043 26.3067 60.2784 28.1038 58.4799L37.0467 49.537C37.5146 49.0691 38.1375 48.8117 38.8014 48.8117C39.0178 48.8117 39.2313 48.8395 39.4404 48.8951L41.6951 46.6403C39.6202 43.6165 38.5206 40.0662 38.5177 36.3653H20.3394V40.249C20.3394 42.571 18.4517 44.4587 16.1312 44.4587C13.8106 44.4587 11.9214 42.5695 11.9214 40.249V36.3244C8.05243 36.0173 4.57674 34.0214 2.34101 30.8294V52.7173C2.34101 55.6593 4.73466 58.0515 7.67517 58.0515H23.5431C24.188 58.0515 24.7129 58.5764 24.7129 59.2212C24.7129 59.8661 24.188 60.391 23.5431 60.391H7.67371C3.44206 60.391 0 56.9489 0 52.7173V18.8874C0 14.6573 3.44206 11.2152 7.67371 11.2152H20.9316V7.469C20.9316 3.34994 24.2816 0 28.3992 0H40.8821C44.9997 0 48.3496 3.34994 48.3496 7.469V11.2152H61.6076C65.8378 11.2152 69.2798 14.6573 69.2798 18.8874V23.0694C69.4099 23.1908 69.5372 23.315 69.6644 23.4408C76.7781 30.5559 76.7781 42.1308 69.6644 49.2445C69.5372 49.3717 69.4099 49.496 69.2798 49.6174V52.7144C69.2798 56.946 65.8378 60.3881 61.6076 60.3881H44.2847C43.6398 60.3881 43.1149 59.8631 43.1149 59.2183C43.1149 58.5735 43.6398 58.0485 44.2847 58.0485H61.6076C64.5481 58.0485 66.9403 55.6563 66.9403 52.7144V51.4861C63.931 53.5098 60.4159 54.5787 56.7632 54.5787C53.1106 54.5787 49.5033 53.482 46.4692 51.4071L44.213 53.6648C44.4382 54.5202 44.194 55.4341 43.5697 56.057L34.6267 64.9999C33.7553 65.8714 32.5972 66.351 31.366 66.351V66.3554ZM29.7576 60.1336C29.3277 60.5635 29.0923 61.1338 29.0923 61.7421C29.0923 62.3504 29.3291 62.9206 29.7576 63.3505C30.1875 63.7804 30.7577 64.0173 31.3645 64.0173C31.9714 64.0173 32.5431 63.7804 32.973 63.3505L39.1172 57.2063L35.9018 53.9909L29.7576 60.1351V60.1336ZM40.771 55.5525L41.9174 54.4061C41.9715 54.352 41.9715 54.2599 41.9174 54.2058L38.9257 51.2141H38.8833V51.1747C38.8584 51.1586 38.8306 51.1498 38.8028 51.1498C38.7663 51.1498 38.7297 51.1644 38.7019 51.1922L37.557 52.3371L40.7724 55.5525H40.771ZM56.7632 20.4345C52.517 20.4345 48.5222 22.0897 45.5159 25.0975C42.511 28.1023 40.8573 32.0956 40.8573 36.3448C40.8573 40.5941 42.5125 44.5888 45.5159 47.5937C48.5222 50.6 52.517 52.2567 56.7632 52.2567C61.0095 52.2567 65.0043 50.6015 68.0106 47.5937C74.2119 41.391 74.2119 31.3002 68.0106 25.0989C65.0043 22.0926 61.0095 20.4359 56.7632 20.4359V20.4345ZM42.7961 51.7771L44.6151 49.9581C44.3593 49.73 44.1063 49.4916 43.8606 49.246C43.6252 49.012 43.3869 48.7591 43.1485 48.4915L41.3295 50.3105L42.7947 51.7756L42.7961 51.7771ZM14.2595 40.2504C14.2595 41.2813 15.0988 42.1191 16.1297 42.1191C17.1606 42.1191 17.9984 41.2813 17.9984 40.2504V39.145H14.2595V40.2504ZM17.9984 36.8054V33.1865C17.9984 32.1556 17.1606 31.3177 16.1297 31.3177C15.0988 31.3177 14.2595 32.1556 14.2595 33.1865V36.8054H17.9984ZM38.6625 34.0258C39.1699 29.9974 40.9669 26.3389 43.8621 23.4437C47.3085 19.9973 51.8853 18.0979 56.7486 18.0979C60.4159 18.0979 63.9369 19.1697 66.9403 21.1978V18.8889C66.9403 15.9469 64.5481 13.5547 61.6076 13.5547H7.67371C4.73173 13.5547 2.33955 15.9469 2.33955 18.8889V23.4115C2.33955 26.0757 3.33532 28.6243 5.14261 30.5896C6.92067 32.5226 9.32455 33.7231 11.92 33.9746V33.1865C11.92 30.8659 13.8092 28.9782 16.1297 28.9782C18.4502 28.9782 20.338 30.8659 20.338 33.1865V34.0258H38.6625ZM46.0101 11.2167V7.47046C46.0101 4.64254 43.7086 2.34101 40.8806 2.34101H28.3992C25.5712 2.34101 23.2712 4.64254 23.2712 7.47046V11.2167H25.4645V7.47046C25.4645 5.85179 26.7805 4.53433 28.3992 4.53433H40.8806C42.4993 4.53433 43.8168 5.85179 43.8168 7.47046V11.2167H46.0101ZM41.4772 11.2167V7.47046C41.4772 7.14146 41.2096 6.87388 40.8806 6.87388H28.3992C28.0716 6.87388 27.804 7.14146 27.804 7.47046V11.2167H41.4772Z" fill="#E9B300"/>
<path d="M56.7647 49.2665C49.6393 49.2665 43.8431 43.4702 43.8431 36.3449C43.8431 29.2195 49.6393 23.4232 56.7647 23.4232C63.8901 23.4232 69.6863 29.2195 69.6863 36.3449C69.6863 43.4702 63.8901 49.2665 56.7647 49.2665ZM56.7647 25.7613C50.929 25.7613 46.1826 30.5091 46.1826 36.3434C46.1826 42.1776 50.9304 46.9255 56.7647 46.9255C62.5989 46.9255 67.3467 42.1776 67.3467 36.3434C67.3467 30.5091 62.5989 25.7613 56.7647 25.7613Z" fill="#E9B300"/>
</g>
<defs>
<clipPath id="clip0_509_5488">
<rect width="75" height="66.3554" fill="white"/>
</clipPath>
</defs>
</svg>
