<svg width="60" height="60" viewBox="0 0 60 60" fill="none" xmlns="http://www.w3.org/2000/svg">
<path d="M44.4246 60C43.8559 60 43.394 59.5381 43.394 58.9694V50.2636H35.8398V58.9694C35.8398 59.5381 35.3779 60 34.8092 60C34.2404 60 33.7785 59.5381 33.7785 58.9694V50.2636H26.2243V58.9694C26.2243 59.5381 25.7624 60 25.1937 60C24.6249 60 24.163 59.5381 24.163 58.9694V50.2636H16.6088V58.9694C16.6088 59.5381 16.1469 60 15.5782 60C15.0095 60 14.5475 59.5381 14.5475 58.9694V50.2636H12.5737C11.0104 50.2636 9.73914 48.9923 9.73914 47.429V45.4552H1.03077C0.462047 45.4552 0.00012207 44.9932 0.00012207 44.4245C0.00012207 43.8558 0.462047 43.3939 1.03077 43.3939H9.73656V35.8397H1.03077C0.462047 35.8397 0.00012207 35.3778 0.00012207 34.809C0.00012207 34.2403 0.462047 33.7784 1.03077 33.7784H9.73656V26.2242H1.03077C0.462047 26.2242 0.00012207 25.7623 0.00012207 25.1935C0.00012207 24.6248 0.462047 24.1629 1.03077 24.1629H9.73656V16.6087H1.03077C0.462047 16.6087 0.00012207 16.1468 0.00012207 15.578C0.00012207 15.0093 0.462047 14.5474 1.03077 14.5474H9.73656V12.5736C9.73656 11.0116 11.0078 9.73901 12.5712 9.73901H14.545V1.03064C14.545 0.461924 15.0069 0 15.5756 0C16.1443 0 16.6062 0.461924 16.6062 1.03064V9.73644H24.1604V1.03064C24.1604 0.461924 24.6224 0 25.1911 0C25.7598 0 26.2217 0.461924 26.2217 1.03064V9.73644H33.7759V1.03064C33.7759 0.461924 34.2379 0 34.8066 0C35.3753 0 35.8372 0.461924 35.8372 1.03064V9.73644H43.3914V1.03064C43.3914 0.461924 43.8534 0 44.4221 0C44.9908 0 45.4527 0.461924 45.4527 1.03064V9.73644H47.4265C48.9898 9.73644 50.2611 11.0077 50.2611 12.571V14.5448H58.9669C59.5356 14.5448 59.9976 15.0068 59.9976 15.5755C59.9976 16.1442 59.5356 16.6061 58.9669 16.6061H50.2611V24.1603H58.9669C59.5356 24.1603 59.9976 24.6222 59.9976 25.191C59.9976 25.7597 59.5356 26.2216 58.9669 26.2216H50.2611V33.7758H58.9669C59.5356 33.7758 59.9976 34.2377 59.9976 34.8065C59.9976 35.3752 59.5356 35.8371 58.9669 35.8371H50.2611V43.3913H58.9669C59.5356 43.3913 59.9976 43.8532 59.9976 44.422C59.9976 44.9907 59.5356 45.4526 58.9669 45.4526H50.2611V47.4264C50.2611 48.9884 48.9898 50.261 47.4265 50.261H45.4527V58.9668C45.4527 59.5355 44.9908 59.9974 44.4221 59.9974L44.4246 60ZM46.926 48.2036H47.4317C47.5101 48.2036 48.2011 48.1804 48.2062 47.3209C48.2062 47.2179 48.2062 47.0262 48.2062 46.675C48.2062 45.9763 48.2062 44.6381 48.2062 42.0827C48.205 37.4352 48.2024 28.759 48.2011 12.571V11.799H11.7991V48.201H46.926V48.2036Z" fill="#065090"/>
<path d="M23.9893 40.647C23.7139 40.647 23.4553 40.5402 23.2597 40.3447L19.6531 36.738C19.4588 36.5437 19.3507 36.2838 19.3507 36.0085V23.9882C19.3507 23.7128 19.4575 23.4542 19.6531 23.2586L23.2597 19.652C23.454 19.4577 23.7139 19.3496 23.9893 19.3496H36.0096C36.2849 19.3496 36.5436 19.4564 36.7379 19.652L40.3445 23.2586C40.5388 23.4529 40.6468 23.7128 40.6468 23.9882V36.0085C40.6468 36.2838 40.54 36.5425 40.3445 36.738L36.7379 40.3434C36.5436 40.5377 36.2837 40.6457 36.0083 40.6457H23.988L23.9893 40.647ZM21.4146 24.4166V35.5826L24.4164 38.5845H35.5824L38.5843 35.5826V24.4166L35.5824 21.4148H24.4164L21.4146 24.4166Z" fill="#065090"/>
</svg>
