<svg width="25" height="25" viewBox="0 0 25 25" fill="none" xmlns="http://www.w3.org/2000/svg">
<g clip-path="url(#clip0_645_1402)">
<path d="M22.4751 12.9184C22.3543 12.3695 22.0867 11.9092 21.6729 11.5373C21.2589 11.1654 20.7823 10.9468 20.2427 10.8817C18.5315 10.6957 15.9506 10.6027 12.4999 10.6027C9.04923 10.6027 6.47299 10.6957 4.77092 10.8817C4.22233 10.9468 3.74336 11.1654 3.33398 11.5373C2.9247 11.9094 2.65497 12.3697 2.5247 12.9184C2.28293 13.9975 2.16199 15.625 2.16199 17.8014C2.16199 20.0149 2.28293 21.6426 2.5247 22.6843C2.64579 23.2328 2.91322 23.6935 3.32709 24.0653C3.74097 24.4373 4.21764 24.6512 4.75699 24.7071C6.46849 24.9024 9.04953 25 12.5 25C15.9502 25 18.5317 24.9024 20.2426 24.7071C20.7822 24.6512 21.2564 24.4373 21.6658 24.0653C22.0751 23.6936 22.3449 23.2328 22.475 22.6843C22.7168 21.6053 22.8378 19.9777 22.8378 17.8014C22.8378 15.5879 22.7167 13.9601 22.4751 12.9184ZM8.06375 14.3277H6.57101V22.2656H5.176V14.3277H3.71107V13.0164H8.0638V14.3277H8.06375ZM11.8304 22.2656H10.5888V21.5121C10.0866 22.0797 9.61204 22.3633 9.16562 22.3633C8.73787 22.3633 8.4681 22.1911 8.35664 21.8471C8.28232 21.6239 8.24493 21.2842 8.24493 20.8286V15.3738H9.48656V20.452C9.48656 20.7494 9.49125 20.9123 9.50063 20.9403C9.52854 21.1356 9.62612 21.2332 9.79362 21.2332C10.0447 21.2332 10.3099 21.0379 10.5888 20.6473V15.3738H11.8305L11.8304 22.2656ZM16.5738 20.2008C16.5738 20.8797 16.532 21.345 16.4487 21.5963C16.2902 22.1075 15.9602 22.3633 15.4581 22.3633C15.0116 22.3633 14.5792 22.1075 14.1604 21.5963V22.2658H12.919V13.0164H14.1604V16.0437C14.5606 15.5417 14.9929 15.2906 15.4581 15.2906C15.9602 15.2906 16.2902 15.5511 16.4487 16.0718C16.5319 16.3136 16.5738 16.7739 16.5738 17.4529V20.2008ZM21.2892 19.057H18.7921V20.2707C18.7921 20.9125 19.0058 21.2332 19.4337 21.2332C19.7405 21.2332 19.9267 21.066 19.9917 20.7309C20.0101 20.6379 20.0196 20.3543 20.0196 19.8801H21.2892V20.0613C21.2892 20.5172 21.2796 20.7868 21.2612 20.8707C21.2335 21.1215 21.1361 21.3727 20.9683 21.6238C20.6335 22.1168 20.1308 22.3633 19.4613 22.3633C18.8198 22.3633 18.3175 22.126 17.9546 21.6519C17.6851 21.3078 17.5503 20.7683 17.5503 20.0335V17.6199C17.5503 16.8852 17.6804 16.3457 17.9406 16.0016C18.3035 15.5273 18.8011 15.2902 19.4337 15.2902C20.057 15.2902 20.5502 15.5273 20.9125 16.0016C21.1639 16.3457 21.2892 16.8852 21.2892 17.6199V19.057Z" fill="white"/>
<path d="M14.7878 16.4203C14.5738 16.4203 14.3648 16.523 14.1601 16.7273V20.9264C14.3647 21.1309 14.5738 21.2332 14.7878 21.2332C15.1504 21.2332 15.3322 20.9218 15.3322 20.2984V17.3551C15.3321 16.7318 15.1508 16.4203 14.7878 16.4203Z" fill="white"/>
<path d="M19.4198 16.4203C19.0013 16.4203 18.7921 16.7367 18.7921 17.3688V18.0105H20.0475V17.3688C20.0475 16.7364 19.8382 16.4203 19.4198 16.4203Z" fill="white"/>
<path d="M7.25493 5.56641V9.34724H8.64994V5.56641L10.3377 0H8.91478L7.96634 3.66913L6.97572 0H5.49701C5.75745 0.781331 6.05972 1.65086 6.40387 2.60888C6.84105 3.89229 7.12456 4.87831 7.25493 5.56641Z" fill="white"/>
<path d="M12.2071 9.44492C12.8489 9.44492 13.3417 9.20773 13.6859 8.73341C13.9464 8.38927 14.0765 7.84048 14.0765 7.08724V4.64572C14.0765 3.90177 13.9461 3.35752 13.6859 3.01338C13.3417 2.53906 12.8489 2.30187 12.2071 2.30187C11.5838 2.30187 11.0955 2.53906 10.7422 3.01338C10.4819 3.35752 10.3517 3.90177 10.3517 4.64572V7.08719C10.3517 7.83114 10.4818 8.37998 10.7422 8.73336C11.0956 9.20773 11.5838 9.44492 12.2071 9.44492ZM11.6071 4.39456C11.6071 3.75278 11.8071 3.43189 12.2071 3.43189C12.6071 3.43189 12.8069 3.75278 12.8069 4.39456V7.32418C12.8069 7.97544 12.6071 8.30072 12.2071 8.30072C11.8071 8.30072 11.6071 7.97524 11.6071 7.32418V4.39456Z" fill="white"/>
<path d="M16.0433 9.44492C16.5087 9.44492 16.9878 9.15658 17.4806 8.57979V9.3471H18.7501V2.38563H17.4806V7.70088C17.2015 8.10088 16.9366 8.30068 16.6851 8.30068C16.5176 8.30068 16.4199 8.19841 16.3921 7.99381C16.3828 7.9752 16.3781 7.81229 16.3781 7.50547V2.38563H15.1086V7.88241C15.1086 8.35663 15.1461 8.70527 15.2203 8.92863C15.3413 9.27277 15.6156 9.44492 16.0433 9.44492Z" fill="white"/>
</g>
<defs>
<clipPath id="clip0_645_1402">
<rect width="25" height="25" fill="white"/>
</clipPath>
</defs>
</svg>
