<svg width="60" height="60" viewBox="0 0 60 60" fill="none" xmlns="http://www.w3.org/2000/svg">
<g clip-path="url(#clip0_334_3302)">
<path d="M1.04666 60C0.46969 60 0 59.5303 0 58.9533V32.3537C0 31.7767 0.46969 31.307 1.04666 31.307H2.35499V12.8164C2.35499 12.2394 2.82468 11.7697 3.40166 11.7697H7.06367V9.08635L6.95116 9.07065C2.98822 8.50022 0 5.05146 0 1.04666C0 0.46969 0.46969 0 1.04666 0C3.21064 0 5.24771 0.842564 6.77976 2.37331C7.24945 2.843 7.65896 3.36764 7.99913 3.93153L8.11164 4.11731L8.22416 3.93153C9.68687 1.50589 12.348 0 15.1701 0C15.7471 0 16.2167 0.46969 16.2167 1.04666C16.2167 3.21195 15.3742 5.24771 13.8421 6.77976C12.5887 8.03184 11.007 8.82468 9.2669 9.07196L9.15438 9.08766V11.7697H12.8164C13.3934 11.7697 13.8631 12.2394 13.8631 12.8164V31.307H21.1871V12.8164C21.1871 12.2394 21.6568 11.7697 22.2338 11.7697H25.8958V9.08635L25.7833 9.07065C21.8216 8.50153 18.8334 5.05146 18.8334 1.04666C18.8334 0.46969 19.3031 0 19.8801 0C22.0454 0 24.0811 0.842564 25.6132 2.37331C26.0829 2.843 26.4924 3.36764 26.8325 3.93153L26.945 4.11731L27.0576 3.93153C28.519 1.50589 31.1801 0 34.0022 0C34.5792 0 35.0488 0.46969 35.0488 1.04666C35.0488 3.21195 34.2063 5.24771 32.6742 6.77976C31.4208 8.03184 29.8391 8.82468 28.099 9.07196L27.9865 9.08766V11.7697H31.6485C32.2255 11.7697 32.6952 12.2394 32.6952 12.8164V22.4352L42.3729 30.1766V22.9376C42.3729 22.5608 42.577 22.2115 42.9054 22.0257C43.0624 21.9381 43.239 21.891 43.4182 21.891C43.6092 21.891 43.7963 21.9433 43.9599 22.0427L59.4963 31.4588C59.8077 31.6472 60 31.99 60 32.3537V58.9533C60 59.5303 59.5303 60 58.9533 60H1.04666ZM18.5704 57.908H57.908V50.584H18.5704V57.908ZM9.15438 57.908H16.4784V41.1692H9.15438V57.908ZM2.09202 57.908H7.06236V50.584H2.09202V57.908ZM50.4793 39.0759C51.0563 39.0759 51.5259 39.5456 51.5259 40.1225V48.4919H57.908V32.9437L44.4636 24.7955V32.3537C44.4636 32.7527 44.2307 33.123 43.8709 33.297C43.7283 33.365 43.5765 33.4003 43.4182 33.4003C43.1814 33.4003 42.9498 33.3192 42.7641 33.1714L32.6939 25.1147V32.3537C32.6939 32.9307 32.2242 33.4003 31.6472 33.4003H2.09202V48.4919H7.06236V40.1225C7.06236 39.5456 7.53205 39.0759 8.10903 39.0759H17.5251C18.102 39.0759 18.5717 39.5456 18.5717 40.1225V48.4919H23.5408V40.1225C23.5408 39.5456 24.0105 39.0759 24.5874 39.0759H34.0035C34.5805 39.0759 35.0502 39.5456 35.0502 40.1225V48.4919H40.0192V40.1225C40.0192 39.5456 40.4889 39.0759 41.0659 39.0759H50.4819H50.4793ZM42.1099 48.4919H49.4339V41.1679H42.1099V48.4919ZM25.6328 48.4919H32.9568V41.1679H25.6328V48.4919ZM23.2791 31.3083H30.6031V18.5704H23.2791V31.3083ZM4.44701 31.3083H11.771V18.5704H4.4457V31.3083H4.44701ZM23.2778 16.4771H30.6018V13.8618H23.2778V16.4771ZM4.4457 16.4771H11.7697V13.8618H4.4457V16.4771ZM32.6454 2.2464C30.4226 2.76058 28.6537 4.52944 28.1396 6.75229L28.0925 6.95639L28.2966 6.90929C29.3903 6.65809 30.3912 6.10205 31.1945 5.30004C31.9952 4.49804 32.5526 3.49717 32.8024 2.4034L32.8495 2.1993L32.6454 2.2464ZM13.8133 2.2464C11.5905 2.76058 9.82163 4.52944 9.30746 6.75229L9.26036 6.95639L9.46446 6.90929C10.5582 6.65809 11.5591 6.10205 12.3624 5.30004C13.1631 4.49804 13.7205 3.49717 13.9703 2.4034L14.0174 2.1993L13.8133 2.2464ZM21.0772 2.40209C21.5914 4.62495 23.3602 6.39381 25.5831 6.90798L25.7872 6.95508L25.7401 6.75098C25.4889 5.65722 24.9328 4.65635 24.1308 3.85303C23.3288 3.05233 22.3266 2.49629 21.2342 2.24509L21.0301 2.19799L21.0772 2.40209ZM2.24509 2.40209C2.75927 4.62495 4.52813 6.39381 6.75098 6.90798L6.95508 6.95508L6.90798 6.75098C6.65678 5.65722 6.10074 4.65635 5.29874 3.85303C4.49673 3.05233 3.49455 2.49629 2.40209 2.24509L2.19799 2.19799L2.24509 2.40209Z" fill="#065090"/>
</g>
<defs>
<clipPath id="clip0_334_3302">
<rect width="60" height="60" fill="white"/>
</clipPath>
</defs>
</svg>
